<?xml version="1.0" encoding="UTF-8"?>
<svg version="1.1" xmlns="http://www.w3.org/2000/svg" width="512" height="512">
<path d="M0 0 C1.19625 0.32871094 2.3925 0.65742187 3.625 0.99609375 C17.81206124 5.26699031 30.93438017 12.10422906 42 22 C42.81597656 22.68578125 43.63195312 23.3715625 44.47265625 24.078125 C64.21344002 41.04238431 78.63821932 65.76186579 81 92 C81.61993361 106.43713854 82.10970712 121.03031007 78 135 C77.6596875 136.22074219 77.319375 137.44148437 76.96875 138.69921875 C69.56562563 163.03448907 53.77053164 179.69701609 36.07589483 197.26121855 C33.60011382 199.72174409 31.13265493 202.19059146 28.66409302 204.65835571 C24.52537842 208.79340192 20.38111618 212.92281632 16.23291016 217.04833984 C10.92892821 222.323376 5.63430779 227.60770645 0.34255791 232.89500999 C-4.23989512 237.47346719 -8.82658822 242.04767007 -13.41396856 246.62118959 C-14.87377479 248.076925 -16.33301515 249.53322579 -17.79217911 250.98960495 C-20.52126712 253.71283342 -23.25475572 256.43161886 -25.98876953 259.14990234 C-26.78586334 259.9458783 -27.58295715 260.74185425 -28.40420532 261.56195068 C-32.49029672 265.61709016 -36.66462586 269.4881032 -41.02337456 273.2469883 C-44.59903935 276.41814156 -47.94226955 279.82063923 -51.30859375 283.2109375 C-52.09670441 284.00050842 -52.88481506 284.79007935 -53.69680786 285.60357666 C-55.39478768 287.30533965 -57.09161209 289.00825613 -58.78738403 290.71221924 C-61.47621768 293.41390271 -64.16823814 296.11237453 -66.86108398 298.81005859 C-72.57687268 304.53723426 -78.28875097 310.26829817 -84 316 C-90.62198724 322.64570152 -97.24566672 329.28969713 -103.87356567 335.92950439 C-106.51665546 338.57904359 -109.15669826 341.23159295 -111.79663086 343.88427734 C-113.42807333 345.51935473 -115.05965771 347.15429055 -116.69140625 348.7890625 C-117.41683624 349.51965881 -118.14226624 350.25025513 -118.88967896 351.00299072 C-122.85038858 354.96410536 -126.91719493 358.72391987 -131.15840721 362.38229561 C-133.78774039 364.69197224 -136.23072027 367.13428385 -138.69067383 369.62475586 C-139.20086563 370.13962051 -139.71105743 370.65448517 -140.23670959 371.18495178 C-141.32897352 372.28760236 -142.4201153 373.3913655 -143.51020241 374.49616814 C-145.24549854 376.25380631 -146.98500173 378.00718067 -148.72575378 379.75941467 C-153.66962837 384.73657733 -158.60926521 389.71788396 -163.53833008 394.7097168 C-166.56895326 397.77832669 -169.60713077 400.83928859 -172.65003014 403.89572334 C-173.79651021 405.05016817 -174.94022805 406.20736398 -176.08091164 407.36753654 C-193.27085541 424.84607002 -212.18206179 436.47436225 -237.25 437.3125 C-256.61649225 436.8065539 -273.29035139 430.55977689 -288 418 C-288.65226562 417.45988281 -289.30453125 416.91976563 -289.9765625 416.36328125 C-303.9581374 403.69048391 -310.76279585 384.57949403 -311.87670898 366.22460938 C-312.73660804 345.7775915 -305.11604839 328.28633102 -292 313 C-288.49314744 309.24156324 -284.86732151 305.60828021 -281.21875 301.98828125 C-280.19523057 300.96595849 -279.17208556 299.94326075 -278.14929199 298.92021179 C-276.02107012 296.79354048 -273.88957664 294.6702266 -271.75537109 292.54956055 C-269.04062516 289.85183464 -266.33253978 287.14754164 -263.62667084 284.44091511 C-261.51982752 282.33434559 -259.41037399 280.23040609 -257.30006409 278.1273098 C-256.30129453 277.1316872 -255.30309854 276.13548884 -254.30552673 275.13866615 C-252.90474513 273.74008927 -251.50027334 272.34521145 -250.09570312 270.95043945 C-249.30264771 270.16119583 -248.50959229 269.37195221 -247.69250488 268.55879211 C-245.57031257 266.54199021 -243.42192933 264.61986277 -241.20654297 262.70951843 C-236.81202701 258.88963135 -232.70101582 254.82750949 -228.59960938 250.69726562 C-227.80174515 249.89794113 -227.00388092 249.09861664 -226.18183899 248.27507019 C-224.46257849 246.55202607 -222.74447341 244.82782843 -221.02742004 243.10258484 C-218.30498045 240.36729749 -215.57935569 237.63521982 -212.85290527 234.90393066 C-207.06578767 229.10542508 -201.28257927 223.30303096 -195.5 217.5 C-188.79540569 210.77169304 -182.08912059 204.04509127 -175.37861633 197.32267761 C-172.70228838 194.63989934 -170.02900673 191.95411109 -167.35583496 189.26818848 C-165.70416947 187.61288813 -164.05236211 185.95772933 -162.40039062 184.30273438 C-161.66560989 183.56278732 -160.93082916 182.82284027 -160.17378235 182.06047058 C-156.20946769 178.09575543 -152.14063459 174.33505472 -147.89561462 170.67368317 C-144.92120469 168.047506 -142.14782783 165.23937383 -139.37207031 162.40625 C-138.76285233 161.78914658 -138.15363434 161.17204315 -137.5259552 160.53623962 C-136.21927977 159.21252199 -134.91367944 157.88774237 -133.60907745 156.5619812 C-130.83382721 153.74433088 -128.04895456 150.93627191 -125.26467514 148.12754822 C-120.09460281 142.91185206 -114.92865501 137.69221782 -109.77880859 132.45654297 C-106.18176512 128.80029045 -102.57278295 125.15621237 -98.95546722 121.52001953 C-97.58097566 120.13376081 -96.21103824 118.74297144 -94.84574127 117.34765625 C-92.94523859 115.40637793 -91.02993966 113.48097468 -89.11035156 111.55859375 C-88.5482045 110.97689926 -87.98605743 110.39520477 -87.40687561 109.79588318 C-85.81890869 108.22436523 -85.81890869 108.22436523 -83 106 C-78.61842616 106.47123765 -76.29048151 109.3265586 -73.359375 112.34765625 C-72.83232971 112.87894638 -72.30528442 113.41023651 -71.76226807 113.95762634 C-70.08432813 115.65232825 -68.41713272 117.35717217 -66.75 119.0625 C-65.61267255 120.21487745 -64.47465934 121.36657852 -63.3359375 122.51757812 C-60.54928008 125.33727184 -57.77221208 128.16610588 -55 131 C-56.30850636 133.88793985 -57.70446481 135.95350175 -59.94580078 138.1887207 C-60.5404715 138.78646805 -61.13514221 139.38421539 -61.74783325 140.00007629 C-62.3905014 140.63555893 -63.03316956 141.27104156 -63.6953125 141.92578125 C-64.36158661 142.59159714 -65.02786072 143.25741302 -65.71432495 143.94340515 C-67.12587061 145.35193182 -68.53984381 146.75802933 -69.95605469 148.16186523 C-72.10141236 150.28911149 -74.23880434 152.42410443 -76.375 154.56054688 C-77.75213618 155.93276149 -79.1297264 157.30452063 -80.5078125 158.67578125 C-81.13833527 159.30519119 -81.76885803 159.93460114 -82.41848755 160.58308411 C-85.43388444 163.56712783 -88.4892281 166.4522835 -91.71334839 169.21037292 C-96.0986364 173.03234077 -100.21127321 177.08443693 -104.30859375 181.2109375 C-105.09670441 182.00050842 -105.88481506 182.79007935 -106.69680786 183.60357666 C-108.39478768 185.30533965 -110.09161209 187.00825613 -111.78738403 188.71221924 C-114.47621768 191.41390271 -117.16823814 194.11237453 -119.86108398 196.81005859 C-125.57687268 202.53723426 -131.28875097 208.26829817 -137 214 C-143.62198724 220.64570152 -150.24566672 227.28969713 -156.87356567 233.92950439 C-159.51665546 236.57904359 -162.15669826 239.23159295 -164.79663086 241.88427734 C-166.42807333 243.51935473 -168.05965771 245.15429055 -169.69140625 246.7890625 C-170.41683624 247.51965881 -171.14226624 248.25025513 -171.88967896 249.00299072 C-175.80026873 252.91398039 -179.81453755 256.62175242 -184.00133705 260.23403168 C-187.55361251 263.37273295 -190.89986115 266.71833906 -194.2644043 270.05566406 C-195.04758026 270.82905624 -195.83075623 271.60244843 -196.63766479 272.39927673 C-199.20298317 274.93491735 -201.76423825 277.47459579 -204.32421875 280.015625 C-205.20427896 280.88911339 -206.08433918 281.76260178 -206.99106789 282.66255951 C-211.1655159 286.80787608 -215.33735892 290.95578721 -219.50594205 295.10700154 C-224.28989078 299.87057856 -229.08538963 304.62213369 -233.89065045 309.36420846 C-238.07684751 313.49724534 -242.24633935 317.64683018 -246.41037941 321.80217743 C-248.17341609 323.55668181 -249.94156346 325.30606692 -251.71500206 327.05005646 C-254.19898344 329.49496993 -256.66319837 331.95832482 -259.1237793 334.42675781 C-259.85064438 335.13362228 -260.57750946 335.84048676 -261.32640076 336.56877136 C-268.93180271 344.28308865 -272.70616984 352.98507105 -273.12890625 363.796875 C-272.70617055 374.30121657 -268.43734838 383.00121241 -260.875 390.25 C-252.71527858 396.62812286 -243.93267346 398.88125563 -233.67578125 398.47265625 C-222.71040896 397.0626562 -215.56151685 391.65120638 -208 384 C-206.55256258 382.5529059 -205.10459853 381.10633845 -203.65625 379.66015625 C-201.2947599 377.30084599 -198.93736582 374.93833423 -196.59521484 372.55981445 C-195.85996582 371.81562256 -195.1247168 371.07143066 -194.3671875 370.3046875 C-193.71862793 369.64452637 -193.07006836 368.98436523 -192.40185547 368.30419922 C-190.43298282 366.41537832 -188.43216234 364.63889183 -186.36343384 362.86343384 C-181.98722461 359.04265598 -177.87498577 355.00216314 -173.78320312 350.88085938 C-172.6156675 349.71113335 -172.6156675 349.71113335 -171.42454529 348.51777649 C-169.74784614 346.83729463 -168.07230239 345.15565932 -166.39781189 343.47297668 C-163.74258422 340.80489707 -161.08416803 338.14003111 -158.42492676 335.47595215 C-152.78046754 329.82010699 -147.13991828 324.16037222 -141.5 318.5 C-134.96062035 311.93690439 -128.41954516 305.37551362 -121.87425232 298.8183136 C-119.26440069 296.20201349 -116.65759673 293.58270301 -114.05090332 290.96325684 C-112.43968386 289.3484024 -110.82832246 287.73368957 -109.21679688 286.11914062 C-108.50071762 285.39789505 -107.78463837 284.67664948 -107.04685974 283.93354797 C-103.15825254 280.04453822 -99.16166362 276.36550332 -94.99895477 272.77310944 C-91.44817781 269.62350534 -88.12620428 266.2479794 -84.78320312 262.88085938 C-83.6156675 261.71113335 -83.6156675 261.71113335 -82.42454529 260.51777649 C-80.74784614 258.83729463 -79.07230239 257.15565932 -77.39781189 255.47297668 C-74.74258422 252.80489707 -72.08416803 250.14003111 -69.42492676 247.47595215 C-63.78046754 241.82010699 -58.13991828 236.16037222 -52.5 230.5 C-45.96062035 223.93690439 -39.41954516 217.37551362 -32.87425232 210.8183136 C-30.26440069 208.20201349 -27.65759673 205.58270301 -25.05090332 202.96325684 C-23.43968386 201.3484024 -21.82832246 199.73368957 -20.21679688 198.11914062 C-19.50071762 197.39789505 -18.78463837 196.67664948 -18.04685974 195.93354797 C-14.09270765 191.97898655 -10.04251824 188.20271502 -5.79584408 184.56324196 C-2.8147937 181.96830452 -0.00357451 179.20507688 2.80859375 176.4296875 C3.41961441 175.82673859 4.03063507 175.22378967 4.66017151 174.60256958 C5.94131406 173.33513702 7.221 172.06623049 8.49926758 170.79589844 C9.78515638 169.52150958 11.0754934 168.25159253 12.37036133 166.98632812 C30.68992224 149.08359718 42.69628863 130.33861776 43.02294922 104.04541016 C42.83236673 87.05923888 35.91641855 70.84245076 24.3203125 58.59375 C23 57 23 57 23 55 C22.41992188 54.73574219 21.83984375 54.47148438 21.2421875 54.19921875 C18.90821232 52.95090798 17.13892396 51.52472718 15.125 49.8125 C-0.23388034 37.69239509 -18.73972495 33.53574465 -38 35 C-57.84115149 37.54295313 -72.81704425 47.3364797 -86.5625 61.5 C-87.9778998 62.95042803 -89.39585422 64.39836771 -90.81640625 65.84375 C-91.42943604 66.47474609 -92.04246582 67.10574219 -92.67407227 67.75585938 C-94.61177338 69.62542467 -96.58418497 71.37520691 -98.62608337 73.1270752 C-103.03856256 76.97920741 -107.18285891 81.05582026 -111.30859375 85.2109375 C-112.09670441 86.00050842 -112.88481506 86.79007935 -113.69680786 87.60357666 C-115.39478768 89.30533965 -117.09161209 91.00825613 -118.78738403 92.71221924 C-121.47621768 95.41390271 -124.16823814 98.11237453 -126.86108398 100.81005859 C-132.57687268 106.53723426 -138.28875097 112.26829817 -144 118 C-150.62198724 124.64570152 -157.24566672 131.28969713 -163.87356567 137.92950439 C-166.51665546 140.57904359 -169.15669826 143.23159295 -171.79663086 145.88427734 C-173.42807333 147.51935473 -175.05965771 149.15429055 -176.69140625 150.7890625 C-177.41683624 151.51965881 -178.14226624 152.25025513 -178.88967896 153.00299072 C-182.79881054 156.91252204 -186.81367159 160.61356671 -190.99867249 164.22451782 C-194.58230597 167.40374628 -197.93428094 170.81259372 -201.30859375 174.2109375 C-202.09670441 175.00050842 -202.88481506 175.79007935 -203.69680786 176.60357666 C-205.39478768 178.30533965 -207.09161209 180.00825613 -208.78738403 181.71221924 C-211.47621768 184.41390271 -214.16823814 187.11237453 -216.86108398 189.81005859 C-222.57687268 195.53723426 -228.28875097 201.26829817 -234 207 C-240.62198724 213.64570152 -247.24566672 220.28969713 -253.87356567 226.92950439 C-256.51665546 229.57904359 -259.15669826 232.23159295 -261.79663086 234.88427734 C-263.42807333 236.51935473 -265.05965771 238.15429055 -266.69140625 239.7890625 C-267.41683624 240.51965881 -268.14226624 241.25025513 -268.88967896 242.00299072 C-272.88330025 245.99702039 -276.98097476 249.79942071 -281.2582283 253.48798752 C-283.25864005 255.22452253 -285.17037709 257.03098623 -287.05419922 258.89306641 C-287.74206512 259.57132477 -288.42993103 260.24958313 -289.13864136 260.94839478 C-290.2108342 262.0142128 -290.2108342 262.0142128 -291.3046875 263.1015625 C-292.0687088 263.85988373 -292.8327301 264.61820496 -293.61990356 265.39950562 C-295.22633947 266.99655399 -296.83137198 268.59501515 -298.43505859 270.19482422 C-300.85453958 272.60462147 -303.28450188 275.00350722 -305.71484375 277.40234375 C-328.72860985 300.25986906 -345.86055184 325.94424837 -346.24169922 359.45385742 C-346.30573097 386.80859836 -339.41458389 412.09031027 -321 433 C-320.32453125 433.81855469 -319.6490625 434.63710938 -318.953125 435.48046875 C-301.47728486 456.04966016 -275.53000612 467.92724807 -249 471 C-229.70081395 472.56162888 -210.69298626 470.07087938 -193 462 C-191.27716797 461.22849609 -191.27716797 461.22849609 -189.51953125 460.44140625 C-178.6835286 455.32473324 -169.72737447 448.65285559 -160.98364258 440.55004883 C-160.42373784 440.03183217 -159.8638331 439.51361551 -159.28696156 438.97969532 C-153.43122233 433.52377492 -147.76739138 427.88253027 -142.12866783 422.20383263 C-140.26706249 420.32916133 -138.40208593 418.45789776 -136.53633118 416.58735657 C-132.58384346 412.62359826 -128.63537047 408.65585635 -124.6875 404.6875 C-120.08734644 400.06359181 -115.48547853 395.44141517 -110.87937355 390.82343483 C-109.05613465 388.99379069 -107.23596892 387.16112859 -105.41593933 385.32829285 C-104.28615052 384.19486801 -103.1562191 383.0615853 -102.02612305 381.9284668 C-101.532966 381.43014343 -101.03980896 380.93182007 -100.53170776 380.418396 C-97.82273583 377.70902639 -95.03819514 375.14006171 -92.13691711 372.63691711 C-87.82767868 368.90090939 -83.80013752 364.92677488 -79.78320312 360.88085938 C-78.6156675 359.71113335 -78.6156675 359.71113335 -77.42454529 358.51777649 C-75.74784614 356.83729463 -74.07230239 355.15565932 -72.39781189 353.47297668 C-69.74258422 350.80489707 -67.08416803 348.14003111 -64.42492676 345.47595215 C-58.78046754 339.82010699 -53.13991828 334.16037222 -47.5 328.5 C-40.96062035 321.93690439 -34.41954516 315.37551362 -27.87425232 308.8183136 C-25.26440069 306.20201349 -22.65759673 303.58270301 -20.05090332 300.96325684 C-18.43968386 299.3484024 -16.82832246 297.73368957 -15.21679688 296.11914062 C-14.50071762 295.39789505 -13.78463837 294.67664948 -13.04685974 293.93354797 C-9.78857417 290.6749251 -6.4952713 287.51658469 -3.0057373 284.5057373 C1.29806519 280.79153995 5.30448815 276.82168428 9.30859375 272.7890625 C10.09670441 271.99949158 10.88481506 271.20992065 11.69680786 270.39642334 C13.39478768 268.69466035 15.09161209 266.99174387 16.78738403 265.28778076 C19.47621768 262.58609729 22.16823814 259.88762547 24.86108398 257.18994141 C30.57687268 251.46276574 36.28875097 245.73170183 42 240 C48.62198724 233.35429848 55.24566672 226.71030287 61.87356567 220.07049561 C64.51665546 217.42095641 67.15669826 214.76840705 69.79663086 212.11572266 C71.42807333 210.48064527 73.05965771 208.84570945 74.69140625 207.2109375 C75.41683624 206.48034119 76.14226624 205.74974487 76.88967896 204.99700928 C80.8870132 200.99926627 84.98076393 197.18116223 89.27354431 193.50160217 C91.62285504 191.45826557 93.81614985 189.28047281 96 187.0625 C97.1446875 185.90427734 97.1446875 185.90427734 98.3125 184.72265625 C98.869375 184.15417969 99.42625 183.58570313 100 183 C103.90851199 184.58431453 106.52367356 187.26635095 109.421875 190.2265625 C109.92672424 190.73424164 110.43157349 191.24192078 110.95172119 191.76498413 C112.55592096 193.38033842 114.15300856 195.00252209 115.75 196.625 C116.83938107 197.72441698 117.9292199 198.82338059 119.01953125 199.921875 C121.68501885 202.6093602 124.34415143 205.30299021 127 208 C125.34454362 212.28153931 122.12743734 215.14600873 118.93310547 218.30981445 C118.31168167 218.9331366 117.69025787 219.55645874 117.05000305 220.19866943 C114.99391877 222.25845835 112.93071916 224.31095537 110.8671875 226.36328125 C109.43153006 227.79774588 107.99624287 229.23258114 106.56130981 230.66777039 C103.54981611 233.6776994 100.53499223 236.68423878 97.51757812 239.68823242 C93.66601579 243.52287395 89.82099905 247.36399532 85.97826958 251.20748615 C83.01186397 254.17361851 80.04284851 257.13712687 77.07297134 260.09978294 C75.65552959 261.51405982 74.23867745 262.9289279 72.82244492 264.34441566 C70.83187438 266.3327954 68.83803044 268.31783499 66.84326172 270.30200195 C66.26736801 270.87834885 65.6914743 271.45469574 65.09812927 272.04850769 C62.18034236 274.94387351 59.20443765 277.72011671 56.09158325 280.40544128 C51.76374465 284.15406763 47.72422585 288.14939722 43.69140625 292.2109375 C42.90329559 293.00050842 42.11518494 293.79007935 41.30319214 294.60357666 C39.60521232 296.30533965 37.90838791 298.00825613 36.21261597 299.71221924 C33.52378232 302.41390271 30.83176186 305.11237453 28.13891602 307.81005859 C22.42312732 313.53723426 16.71124903 319.26829817 11 325 C4.37801276 331.64570152 -2.24566672 338.28969713 -8.87356567 344.92950439 C-11.51665546 347.57904359 -14.15669826 350.23159295 -16.79663086 352.88427734 C-18.42807333 354.51935473 -20.05965771 356.15429055 -21.69140625 357.7890625 C-22.41683624 358.51965881 -23.14226624 359.25025513 -23.88967896 360.00299072 C-27.79881054 363.91252204 -31.81367159 367.61356671 -35.99867249 371.22451782 C-39.58230597 374.40374628 -42.93428094 377.81259372 -46.30859375 381.2109375 C-47.09670441 382.00050842 -47.88481506 382.79007935 -48.69680786 383.60357666 C-50.39478768 385.30533965 -52.09161209 387.00825613 -53.78738403 388.71221924 C-56.47621768 391.41390271 -59.16823814 394.11237453 -61.86108398 396.81005859 C-67.57687268 402.53723426 -73.28875097 408.26829817 -79 414 C-85.62198724 420.64570152 -92.24566672 427.28969713 -98.87356567 433.92950439 C-101.51665546 436.57904359 -104.15669826 439.23159295 -106.79663086 441.88427734 C-108.42807333 443.51935473 -110.05965771 445.15429055 -111.69140625 446.7890625 C-112.41683624 447.51965881 -113.14226624 448.25025513 -113.88967896 449.00299072 C-117.89528825 453.00900962 -121.99838502 456.83407176 -126.2997942 460.52154827 C-128.49263495 462.42838166 -130.52513186 464.46078489 -132.54296875 466.55078125 C-133.30673828 467.33130859 -134.07050781 468.11183594 -134.85742188 468.91601562 C-136.42626804 470.52957324 -137.9913073 472.14684003 -139.55273438 473.76757812 C-140.31263672 474.54166016 -141.07253906 475.31574219 -141.85546875 476.11328125 C-142.53246826 476.81235596 -143.20946777 477.51143066 -143.90698242 478.23168945 C-146.18135764 480.15322214 -148.21308967 481.00479776 -151 482 C-152.46531742 483.00215794 -153.9016846 484.04746781 -155.3125 485.125 C-162.10417537 489.97187812 -169.44709167 493.51067667 -177 497 C-178.18464844 497.54914063 -179.36929688 498.09828125 -180.58984375 498.6640625 C-198.2591976 506.27848018 -217.14066442 509.23500551 -236.25 509.25 C-237.39998978 509.25101212 -237.39998978 509.25101212 -238.57321167 509.25204468 C-249.99167672 509.23604803 -260.87608726 508.78937993 -272 506 C-272.69754395 505.82839355 -273.39508789 505.65678711 -274.11376953 505.47998047 C-311.8546621 495.98322788 -343.47271818 472.56774771 -364.09765625 439.65234375 C-366.18312186 436.15245831 -368.1313209 432.61869707 -370 429 C-370.33773438 428.35144043 -370.67546875 427.70288086 -371.0234375 427.03466797 C-387.91070756 393.90292337 -389.77190787 353.31722445 -378.44140625 318.125 C-373.59376868 303.86843142 -366.86170234 289.39976848 -357.2265625 277.74609375 C-355.87831533 275.99727439 -355.87831533 275.99727439 -355.1875 273.65234375 C-353.60233533 270.11179503 -351.12951553 267.77015511 -348.375 265.125 C-347.87871094 264.63386719 -347.38242187 264.14273437 -346.87109375 263.63671875 C-344.10254525 260.92452747 -341.25264021 258.34017262 -338.31079102 255.81738281 C-333.91956361 251.9841931 -329.79709473 247.92399061 -325.69140625 243.7890625 C-324.90329559 242.99949158 -324.11518494 242.20992065 -323.30319214 241.39642334 C-321.60521232 239.69466035 -319.90838791 237.99174387 -318.21261597 236.28778076 C-315.52378232 233.58609729 -312.83176186 230.88762547 -310.13891602 228.18994141 C-304.42312732 222.46276574 -298.71124903 216.73170183 -293 211 C-286.37801276 204.35429848 -279.75433328 197.71030287 -273.12643433 191.07049561 C-270.48334454 188.42095641 -267.84330174 185.76840705 -265.20336914 183.11572266 C-263.57192667 181.48064527 -261.94034229 179.84570945 -260.30859375 178.2109375 C-259.58316376 177.48034119 -258.85773376 176.74974487 -258.11032104 175.99700928 C-254.20118946 172.08747796 -250.18632841 168.38643329 -246.00132751 164.77548218 C-242.41769403 161.59625372 -239.06571906 158.18740628 -235.69140625 154.7890625 C-234.90329559 153.99949158 -234.11518494 153.20992065 -233.30319214 152.39642334 C-231.60521232 150.69466035 -229.90838791 148.99174387 -228.21261597 147.28778076 C-225.52378232 144.58609729 -222.83176186 141.88762547 -220.13891602 139.18994141 C-214.42312732 133.46276574 -208.71124903 127.73170183 -203 122 C-196.37801276 115.35429848 -189.75433328 108.71030287 -183.12643433 102.07049561 C-180.48334454 99.42095641 -177.84330174 96.76840705 -175.20336914 94.11572266 C-173.57192667 92.48064527 -171.94034229 90.84570945 -170.30859375 89.2109375 C-169.58316376 88.48034119 -168.85773376 87.74974487 -168.11032104 86.99700928 C-164.1390342 83.02531635 -160.06141204 79.253893 -155.80870056 75.58579063 C-153.38117021 73.45743673 -151.10986143 71.20008224 -148.84765625 68.89770508 C-148.39426376 68.43803345 -147.94087128 67.97836182 -147.47373962 67.50476074 C-146.50426656 66.52160927 -145.53590709 65.53735859 -144.56860352 64.55207253 C-143.02140921 62.97771916 -141.46944583 61.40821118 -139.91601562 59.8400116 C-135.50412035 55.38591101 -131.09482474 50.92935652 -126.70263672 46.45581055 C-106.46023329 25.85082337 -87.26764639 8.48029392 -59 0 C-57.948125 -0.3196875 -56.89625 -0.639375 -55.8125 -0.96875 C-38.42088859 -5.31665285 -17.19058347 -5.10345447 0 0 Z " fill="#000000" transform="translate(385,3)"/>
</svg>
