<?xml version="1.0" encoding="UTF-8"?>
<svg version="1.1" xmlns="http://www.w3.org/2000/svg" width="512" height="512">
<path d="M0 0 C1.77256165 -0.0129007 1.77256165 -0.0129007 3.58093262 -0.02606201 C5.51279671 -0.03245193 5.51279671 -0.03245193 7.48368835 -0.03897095 C8.86059268 -0.04687893 10.23749498 -0.05514831 11.61439514 -0.06375122 C16.126389 -0.08988424 20.63839175 -0.10526711 25.1504364 -0.11953735 C26.70702304 -0.12490005 28.26360962 -0.13027757 29.82019615 -0.13566971 C36.29617797 -0.15728295 42.77215737 -0.17601897 49.24816608 -0.1872921 C58.51369052 -0.20353067 67.77879568 -0.23672367 77.04416209 -0.29369295 C83.56832546 -0.33243452 90.09237684 -0.35192958 96.61665219 -0.35721266 C100.50929778 -0.36085951 104.40149527 -0.37280959 108.29401588 -0.4053154 C111.9574362 -0.43547209 115.62013898 -0.44168146 119.28365707 -0.42993164 C121.25977057 -0.42960706 123.23584029 -0.45402025 125.21179199 -0.47930908 C133.47711558 -0.42153994 138.6021146 0.86257319 144.6117754 6.59668922 C148.98825706 11.39650735 150.61883943 16.47659456 150.4082489 22.94296265 C149.41207312 30.08012076 146.59650434 35.51372353 140.9785614 39.99765015 C136.87634002 42.52209407 133.35177775 43.40377272 128.55444336 43.40545654 C127.4513533 43.41083939 126.34826324 43.41622223 125.21174622 43.42176819 C124.01113556 43.4176442 122.8105249 43.4135202 121.5735321 43.40927124 C119.62069698 43.41482893 117.66786186 43.42039094 115.71502721 43.42611527 C113.62026866 43.43044976 111.52555756 43.42998687 109.43079567 43.42829514 C105.05473895 43.42545464 100.67884273 43.43984289 96.30282593 43.45727539 C83.86053384 43.50422748 71.41825262 43.52822867 58.97587585 43.53475952 C52.10034352 43.53852068 45.22499295 43.55663575 38.34953851 43.58985388 C34.00764719 43.60997712 29.66622758 43.61248285 25.32430899 43.60157371 C21.97368643 43.5983336 18.62332113 43.62110222 15.27275085 43.63973999 C14.08226135 43.63156754 12.89177185 43.62339508 11.66520691 43.61497498 C2.03475159 43.70999166 -6.22854693 45.74956434 -13.43159485 52.44296265 C-17.87435965 57.61831101 -20.02066482 63.79187047 -20.03177261 70.55652905 C-20.03753433 71.87687343 -20.03753433 71.87687343 -20.04341245 73.22389144 C-20.04254596 74.18661996 -20.04167948 75.14934849 -20.04078674 76.14125061 C-20.04375787 77.16737341 -20.04672899 78.19349621 -20.04979014 79.25071365 C-20.0584833 82.69981461 -20.05998592 86.14888089 -20.06147766 89.59799194 C-20.06610542 92.0667071 -20.07113002 94.53542153 -20.07652283 97.00413513 C-20.08965341 103.71916577 -20.09612988 110.4341828 -20.10053349 117.14922309 C-20.10329745 121.34375939 -20.10753511 125.53829339 -20.11203766 129.73282814 C-20.12422995 141.35064264 -20.13452897 152.9684553 -20.13791275 164.58627605 C-20.13813232 165.32970955 -20.13835188 166.07314304 -20.1385781 166.83910482 C-20.13879638 167.58430018 -20.13901466 168.32949554 -20.13923955 169.09727257 C-20.13968301 170.60727799 -20.14012958 172.1172834 -20.14057922 173.62728882 C-20.14091137 174.750807 -20.14091137 174.750807 -20.14125022 175.89702252 C-20.14519658 188.02838608 -20.16264583 200.1596895 -20.18593875 212.29102983 C-20.20967074 224.75184906 -20.22211546 237.21263814 -20.22328067 249.67348033 C-20.22419645 256.66742624 -20.22992427 263.66129383 -20.24810028 270.65521812 C-20.26514119 277.23549148 -20.26674006 283.81564262 -20.25796127 290.39594078 C-20.25719048 292.80939125 -20.26153916 295.22284969 -20.27141953 297.63628006 C-20.28413036 300.93490734 -20.27826642 304.23300767 -20.26783752 307.53163147 C-20.27589393 308.48320639 -20.28395033 309.43478131 -20.29225087 310.41519183 C-20.2249058 319.54396933 -18.18304033 326.71208207 -11.86909485 333.42733765 C-6.61049145 338.03904936 -0.4504645 340.27391127 6.50228405 340.28532791 C7.38251364 340.28916906 8.26274323 340.2930102 9.16964644 340.29696774 C10.13237497 340.29610126 11.0951035 340.29523478 12.08700562 340.29434204 C13.11312842 340.29731316 14.13925122 340.30028429 15.19646865 340.30334544 C18.64556961 340.31203859 22.09463589 340.31354122 25.54374695 340.31503296 C28.0124621 340.31966072 30.48117654 340.32468532 32.94989014 340.33007812 C39.66492077 340.34320871 46.37993781 340.34968518 53.09497809 340.35408878 C57.2895144 340.35685274 61.4840484 340.36109041 65.67858315 340.36559296 C77.29639764 340.37778525 88.9142103 340.38808427 100.53203106 340.39146805 C101.27546455 340.39168761 102.01889804 340.39190718 102.78485982 340.3921334 C103.53005518 340.39235168 104.27525054 340.39256996 105.04302758 340.39279485 C106.553033 340.39323831 108.06303841 340.39368487 109.57304382 340.39413452 C110.32205595 340.39435595 111.07106807 340.39457738 111.84277753 340.39480552 C123.97414108 340.39875188 136.1054445 340.41620112 148.23678484 340.43949404 C160.69760407 340.46322604 173.15839315 340.47567076 185.61923534 340.47683597 C192.61318125 340.47775175 199.60704883 340.48347957 206.60097313 340.50165558 C213.18124649 340.51869649 219.76139762 340.52029535 226.34169579 340.51151657 C228.75514626 340.51074578 231.16860469 340.51509445 233.58203506 340.52497482 C236.88066235 340.53768566 240.17876268 340.53182172 243.47738647 340.52139282 C244.42896139 340.52944923 245.38053631 340.53750563 246.36094683 340.54580617 C255.48972433 340.4784611 262.65783708 338.43659563 269.37309265 332.12265015 C274.34104152 326.45783967 276.22123098 320.13672224 276.23095703 312.71548462 C276.23496521 311.61087891 276.23897339 310.50627319 276.24310303 309.36819458 C276.24257431 308.16084656 276.24204559 306.95349854 276.24150085 305.70956421 C276.2468343 303.75205066 276.25217372 301.79453712 276.25773752 299.83702421 C276.26293067 297.73456241 276.26584689 295.63210685 276.26832008 293.5296402 C276.27424177 289.14163803 276.29079374 284.75371648 276.30966187 280.36575317 C276.31599903 278.86189656 276.32232466 277.3580399 276.32863903 275.8541832 C276.33338775 274.72455823 276.33338775 274.72455823 276.3382324 273.57211256 C276.38026142 263.35948053 276.41327408 253.14688635 276.42558289 242.93417358 C276.43397555 236.04144127 276.45651032 229.14890905 276.49493855 222.25627685 C276.51465827 218.61188432 276.52711749 214.96779064 276.52210426 211.32334137 C276.51657447 207.25388824 276.54191507 203.18517686 276.56962585 199.11581421 C276.56302444 197.91656311 276.55642303 196.71731201 276.54962158 195.48171997 C276.6434869 187.08054695 277.79026414 181.53850459 283.84965515 175.34140015 C289.78762725 171.34468816 295.8113258 168.94604142 303.09965515 170.15390015 C310.59162397 172.29810928 315.17184224 176.30702934 319.15782452 182.90565491 C320.33074337 185.70553116 320.35424601 187.87191998 320.36035156 190.90707397 C320.36743637 192.08162643 320.37452118 193.25617889 320.38182068 194.46632385 C320.37934326 195.75154434 320.37686584 197.03676483 320.37431335 198.3609314 C320.37866184 199.73119891 320.38384545 201.10146399 320.38980103 202.47172546 C320.40319636 206.1932774 320.40376848 209.91472779 320.40123773 213.63629913 C320.40016709 216.7494933 320.40505441 219.862667 320.40984315 222.97585678 C320.42094292 230.32997926 320.42137491 237.68405068 320.41532898 245.03817749 C320.40930551 252.60207884 320.42155754 260.16579341 320.44289905 267.7296629 C320.46058048 274.23774487 320.46650564 280.74576779 320.46326131 287.25387287 C320.46145666 291.1342253 320.46400094 295.01444488 320.47797585 298.89477539 C320.49065426 302.55234007 320.48851676 306.20961714 320.47556496 309.86717796 C320.47211234 311.83054242 320.48330669 313.79391605 320.49513245 315.75724792 C320.39401594 333.01448877 314.64495244 348.25033259 303.09965515 361.15390015 C302.4448114 361.9015564 301.78996765 362.64921265 301.11528015 363.41952515 C290.8002642 374.48746197 275.19861123 383.43491051 259.77404684 384.28155065 C258.96832992 384.28279714 258.16261301 384.28404364 257.33248043 384.28532791 C256.39637556 384.28916906 255.46027069 384.2930102 254.49579901 384.29696774 C252.96576226 384.29566802 252.96576226 384.29566802 251.40481567 384.29434204 C250.31461831 384.29731316 249.22442094 384.30028429 248.10118729 384.30334544 C244.44108225 384.31203025 240.78100992 384.31354052 237.12089539 384.31503296 C234.49926687 384.31966134 231.87763902 384.32468603 229.25601196 384.33007812 C222.12763218 384.34364838 214.99925804 384.34968443 207.87086749 384.35408878 C203.41649491 384.35685402 198.96212449 384.36109194 194.50775337 384.36559296 C182.16589081 384.37778505 169.82402998 384.38808374 157.48216152 384.39146805 C156.29772332 384.3917974 156.29772332 384.3917974 155.08935708 384.3921334 C154.29787703 384.39235168 153.50639698 384.39256996 152.69093269 384.39279485 C151.08718328 384.39323831 149.48343386 384.39368487 147.87968445 384.39413452 C147.08417492 384.39435595 146.2886654 384.39457738 145.46904952 384.39480552 C132.58966076 384.3987504 119.71032869 384.41619519 106.83096182 384.43949404 C93.59603809 384.46324202 80.36114276 384.4756715 67.1261974 384.47683597 C59.70013247 384.47775091 52.27414137 384.48345743 44.84809685 384.50165558 C38.522238 384.51710331 32.19647578 384.52214969 25.87060165 384.51391748 C22.64679781 384.5100271 19.42322771 384.51251373 16.19944 384.52497482 C12.69392144 384.53772654 9.18889584 384.5317995 5.68338013 384.52139282 C4.67897068 384.52944923 3.67456123 384.53750563 2.63971514 384.54580617 C-13.7442994 384.43267464 -28.73916177 378.03495869 -40.90034485 367.15390015 C-42.02182922 366.17163452 -42.02182922 366.17163452 -43.16596985 365.16952515 C-54.23390667 354.85450919 -63.18135521 339.25285622 -64.02799535 323.82829183 C-64.02924185 323.02257492 -64.03048834 322.216858 -64.03177261 321.38672543 C-64.03561376 320.45062056 -64.0394549 319.51451568 -64.04341245 318.550044 C-64.04211272 317.02000725 -64.04211272 317.02000725 -64.04078674 315.45906067 C-64.04375787 314.3688633 -64.04672899 313.27866593 -64.04979014 312.15543228 C-64.05847495 308.49532724 -64.05998523 304.83525492 -64.06147766 301.17514038 C-64.06610604 298.55351186 -64.07113073 295.93188402 -64.07652283 293.31025696 C-64.09009308 286.18187718 -64.09612913 279.05350303 -64.10053349 271.92511249 C-64.10329872 267.47073991 -64.10753664 263.01636949 -64.11203766 258.56199837 C-64.12422975 246.2201358 -64.13452845 233.87827497 -64.13791275 221.53640652 C-64.13813232 220.74678105 -64.13835188 219.95715559 -64.1385781 219.14360208 C-64.13879638 218.35212203 -64.13901466 217.56064198 -64.13923955 216.74517769 C-64.13968301 215.14142827 -64.14012957 213.53767886 -64.14057922 211.93392944 C-64.14091137 210.74066515 -64.14091137 210.74066515 -64.14125022 209.52329452 C-64.1451951 196.64390576 -64.16263989 183.76457369 -64.18593875 170.88520681 C-64.20968672 157.65028309 -64.22211621 144.41538776 -64.22328067 131.18044239 C-64.22419561 123.75437747 -64.22990213 116.32838636 -64.24810028 108.90234184 C-64.26354801 102.57648299 -64.26859439 96.25072078 -64.26036218 89.92484664 C-64.2564718 86.70104281 -64.25895843 83.4774727 -64.27141953 80.253685 C-64.28417124 76.74816643 -64.2782442 73.24314083 -64.26783752 69.73762512 C-64.27589393 68.73321567 -64.28395033 67.72880623 -64.29225087 66.69396013 C-64.22292101 56.65342214 -61.96736189 47.10970916 -57.40034485 38.15390015 C-57.06140198 37.48310425 -56.72245911 36.81230835 -56.37324524 36.1211853 C-52.62593507 29.08818408 -47.61643436 23.6368561 -41.90034485 18.15390015 C-41.29448547 17.55190796 -40.6886261 16.94991577 -40.06440735 16.3296814 C-29.43377123 6.45096832 -14.52422541 0.07897608 0 0 Z " fill="#000000" transform="translate(127.90034484863281,63.846099853515625)"/>
<path d="M0 0 C5.09620539 3.01237564 8.70841667 7.93775001 10.5625 13.5 C10.70834712 15.60075949 10.78335655 17.70688549 10.8125 19.8125 C10.83828125 20.92238281 10.8640625 22.03226563 10.890625 23.17578125 C9.48612604 37.40469328 -9.87553383 51.10767988 -19.37475586 60.63012695 C-21.19252104 62.45580533 -23.01010761 64.28166157 -24.82752991 66.10768127 C-30.25307894 71.55756744 -35.68341114 77.00267471 -41.11466417 82.4468756 C-42.65069941 83.98663292 -44.18660935 85.52651511 -45.72247624 87.06644034 C-55.28323605 96.65241876 -64.84559188 106.23680204 -74.4127264 115.81641865 C-76.62014137 118.02676265 -78.82753995 120.23712302 -81.03491211 122.44750977 C-81.58345384 122.99679755 -82.13199557 123.54608533 -82.69715977 124.11201819 C-91.59605077 133.02358134 -100.48459698 141.9453899 -109.36899751 150.871397 C-118.51081135 160.05566883 -127.66206213 169.23045278 -136.82251841 178.39613122 C-141.95764182 183.53466149 -147.08855445 188.67724633 -152.20884514 193.83056068 C-157.02134138 198.67404811 -161.84649271 203.50460415 -166.68039513 208.32672691 C-168.44956889 210.09567993 -170.21448589 211.86890234 -171.97474289 213.64672852 C-174.38313022 216.07783624 -176.80655519 218.49292102 -179.23423767 220.90473938 C-179.92268656 221.60707036 -180.61113545 222.30940134 -181.32044643 223.03301507 C-186.78628324 228.41159993 -192.91999399 232.58398178 -200.5390625 234.12890625 C-207.54132803 233.9446361 -212.99223322 232.91486541 -218.10273743 227.84945679 C-222.55896709 222.75135631 -226.36240482 217.40393775 -230.04296875 211.7265625 C-230.64828934 210.80394623 -231.25360992 209.88132996 -231.87727356 208.93075562 C-233.79894319 205.99922655 -235.7122206 203.06233562 -237.625 200.125 C-239.51493057 197.23514596 -241.40658575 194.34642745 -243.2986145 191.45794678 C-244.54120263 189.55926481 -245.78199808 187.65940837 -247.02096558 185.75836182 C-249.95339707 181.26355926 -252.907681 176.78801047 -255.93212891 172.35449219 C-256.48032791 171.54740814 -257.02852692 170.7403241 -257.59333801 169.90878296 C-258.60876105 168.41825822 -259.63074357 166.93216902 -260.66093445 165.45181274 C-265.16504771 158.82805522 -268.80636876 151.75987853 -267.4375 143.5 C-265.26714446 135.9166744 -261.20568844 131.50603184 -254.640625 127.3671875 C-249.07240873 125.1754428 -241.55338817 125.40258027 -235.953125 127.375 C-228.31748292 131.87351781 -223.390976 139.76491071 -218.6015625 146.98828125 C-217.81523941 148.16489571 -217.81523941 148.16489571 -217.01303101 149.36528015 C-215.91673897 151.00836695 -214.82274054 152.65298623 -213.73095703 154.29907227 C-212.05280434 156.82710592 -210.36478747 159.34834897 -208.67578125 161.86914062 C-207.6087821 163.47095938 -206.5423549 165.07315931 -205.4765625 166.67578125 C-204.97041412 167.43095535 -204.46426575 168.18612946 -203.94277954 168.96418762 C-203.48164764 169.66218979 -203.02051575 170.36019196 -202.54541016 171.0793457 C-202.13714996 171.69332718 -201.72888977 172.30730865 -201.30825806 172.93989563 C-200.4375 174.5 -200.4375 174.5 -200.4375 176.5 C-195.15944436 171.98045053 -190.10958614 167.31273762 -185.21383667 162.38313293 C-184.53336497 161.70210453 -183.85289328 161.02107613 -183.15180123 160.3194105 C-180.89422088 158.0588175 -178.64024088 155.79466969 -176.38623047 153.53051758 C-174.7595697 151.90029711 -173.1326713 150.27031371 -171.5055542 148.64054871 C-168.01315845 145.14162197 -164.52227677 141.64119413 -161.03252792 138.13962746 C-155.51381318 132.60257228 -149.99071148 127.06990715 -144.46682739 121.53800964 C-136.72349054 113.78290485 -128.98132024 106.02663781 -121.24072266 98.26879883 C-120.75037848 97.77736453 -120.2600343 97.28593023 -119.75483121 96.77960398 C-112.78912048 89.79826709 -105.82490011 82.81544532 -98.86126412 75.83203902 C-98.37031356 75.33969515 -97.87936301 74.84735127 -97.37353516 74.34008789 C-96.63801457 73.60247701 -96.63801457 73.60247701 -95.88763498 72.84996489 C-87.70743786 64.64672219 -79.52331575 56.44740872 -71.33613884 48.25113219 C-65.8442724 42.7527251 -60.3569428 37.24984233 -54.87292838 31.7436043 C-51.46261213 28.32155955 -48.04812345 24.9037021 -44.63243866 21.48701668 C-43.04965398 19.90208447 -41.46859153 18.31543021 -39.88938522 16.72693253 C-37.73325512 14.55860866 -35.57103157 12.39654662 -33.40719604 10.23591614 C-32.78423263 9.60644492 -32.16126922 8.97697371 -31.51942813 8.32842761 C-22.89401039 -0.24739142 -12.19057414 -5.36290762 0 0 Z " fill="#000000" transform="translate(437.4375,65.5)"/>
</svg>
