<?xml version="1.0" encoding="UTF-8"?>
<svg version="1.1" xmlns="http://www.w3.org/2000/svg" width="512" height="512">
<path d="M0 0 C7.46928221 6.47337792 12.35621283 13.5229973 13.6875 23.5 C14.34695016 35.0849352 8.59350292 42.1089298 1.15625 50.45703125 C-0.70714809 52.51202141 -2.59585816 54.54157333 -4.49609375 56.5625 C-6.77999223 59.00219417 -8.98981299 61.48336437 -11.1875 64 C-15.80792795 69.17287043 -20.75684368 73.99955872 -25.6875 78.875 C-31.51335905 84.64900177 -37.11488699 90.36982033 -42.16015625 96.84375 C-44.55972755 99.91372175 -47.08754466 102.8565718 -49.625 105.8125 C-54.61670669 111.67010615 -59.32980204 117.70957633 -63.97558594 123.84326172 C-65.92548002 126.40829161 -67.90296483 128.95197437 -69.875 131.5 C-80.69805638 145.55391664 -91.25097042 159.80259927 -101.59033203 174.21533203 C-103.21006899 176.46890063 -104.83633459 178.71760745 -106.46484375 180.96484375 C-125.17692371 206.78668059 -142.84271175 232.88156048 -158.71484375 260.57421875 C-173.52598982 286.32253116 -173.52598982 286.32253116 -184.1875 290.4375 C-192.57053115 292.07893267 -199.2572424 289.00497015 -206.1875 284.4375 C-210.47815058 281.07924856 -214.32610037 277.27208436 -218.1875 273.4375 C-218.991875 272.67050781 -219.79625 271.90351563 -220.625 271.11328125 C-226.31802564 265.60804639 -231.26286585 259.62892108 -236.1875 253.4375 C-237.10041391 252.31416975 -238.01452736 251.19181354 -238.9296875 250.0703125 C-246.45397659 240.81324881 -253.57777385 231.28796757 -260.5859375 221.63574219 C-262.00451075 219.6886639 -263.43640482 217.75260739 -264.875 215.8203125 C-272.02911497 206.13009762 -278.17630802 195.86655597 -284.1875 185.4375 C-284.59838867 184.72851562 -285.00927734 184.01953125 -285.43261719 183.2890625 C-296.81229418 163.47821076 -296.81229418 163.47821076 -296.3125 153.0625 C-294.35539201 146.75626316 -291.5350623 143.80033744 -285.81640625 140.48046875 C-276.79894654 135.76763027 -268.80256185 132.46458682 -258.625 135.5 C-251.35355019 139.59845353 -246.07056975 145.39044014 -241.1875 152.0625 C-240.06417723 153.56538464 -238.94046072 155.06797504 -237.81640625 156.5703125 C-237.23004395 157.35954102 -236.64368164 158.14876953 -236.03955078 158.96191406 C-234.11839441 161.52987156 -232.1709269 164.07574872 -230.21484375 166.6171875 C-223.34150343 175.55178934 -216.60502763 184.54620331 -210.15673828 193.79296875 C-204.61641536 201.9754411 -204.61641536 201.9754411 -198.1875 209.4375 C-195.8579053 209.93991322 -195.8579053 209.93991322 -193.1875 209.4375 C-185.85826355 203.65126069 -181.07762675 194.30198129 -175.89916992 186.65039062 C-168.98804491 176.44217301 -161.89762026 166.38857466 -154.63378906 156.42919922 C-152.48379061 153.46841472 -150.36780458 150.4838439 -148.25 147.5 C-143.19911498 140.40355304 -138.02666945 133.3977625 -132.84765625 126.39453125 C-130.38652779 123.06624213 -127.93680466 119.73000778 -125.49609375 116.38671875 C-119.27831877 107.87884249 -113.03520011 99.45515893 -106.1875 91.4375 C-105.70458496 90.87111816 -105.22166992 90.30473633 -104.72412109 89.72119141 C-98.15682454 82.03476773 -91.45928306 74.48687893 -84.59765625 67.0625 C-82.61339133 64.90135571 -80.6685994 62.71910292 -78.75 60.5 C-74.24409039 55.31234521 -69.55844105 50.28969546 -64.87939453 45.25878906 C-63.16462215 43.41287248 -61.45539488 41.56191995 -59.74609375 39.7109375 C-52.74063484 32.15078014 -45.61119113 24.71461623 -38.375 17.375 C-37.22922485 16.19719971 -37.22922485 16.19719971 -36.06030273 14.99560547 C-27.0456798 5.92759562 -13.60833834 -6.67075409 0 0 Z " fill="#000000" transform="translate(397.1875,111.5625)"/>
</svg>
