<svg width="512" height="512" version="1.1" xmlns="http://www.w3.org/2000/svg" desc="Created with imagetracer.js version 1.2.6" ><path fill="rgb(0,0,0)" stroke="rgb(0,0,0)" stroke-width="1" opacity="0.9921568627450981" d="M 161.5 32 L 430.5 32 Q 455.7 36.3 468 53.5 L 476 66.5 L 480 81.5 L 480 350.5 Q 475.4 376.4 457.5 389 L 445.5 396 L 430.5 400 L 400 400 L 400 423.5 L 397 436.5 Q 390.4 453.9 377.5 465 L 359.5 476 L 343.5 480 L 88.5 480 Q 61.3 475.3 47 457.5 L 37 441.5 L 32 423.5 L 32 168.5 Q 36.8 141.3 54.5 127 Q 64.4 118.4 78.5 114 L 88.5 112 L 112 112 L 112 81.5 L 114 72.5 Q 119.8 54.3 133.5 44 L 146.5 36 L 161.5 32 Z M 164 64 L 155 68 Q 147 73 144 84 L 144 112 L 344 112 L 360 116 L 378 127 Q 395 141 400 169 L 400 368 L 429 368 L 438 364 Q 445 359 448 349 L 448 84 L 444 75 Q 439 67 429 64 L 164 64 Z M 92 144 L 87 145 L 76 151 Q 67 158 64 172 L 64 421 L 65 426 L 72 438 Q 79 445 92 448 L 341 448 L 346 447 L 358 440 Q 365 433 368 421 L 368 172 L 367 167 L 360 155 Q 353 147 341 144 L 92 144 Z " /><path fill="rgb(0,0,0)" stroke="rgb(0,0,0)" stroke-width="1" opacity="0" d="M 0 0 L 512 0 L 512 512 L 0 512 L 0 0 Z M 162 32 L 147 36 L 134 44 Q 120 54 114 73 L 112 82 L 112 112 L 89 112 L 79 114 Q 64 118 55 127 Q 37 141 32 169 L 32 424 L 37 442 L 47 458 Q 61 475 89 480 L 344 480 L 360 476 L 378 465 Q 390 454 397 437 L 400 424 L 400 400 L 431 400 L 446 396 L 458 389 Q 475 376 480 351 L 480 82 L 476 67 L 468 54 Q 456 36 431 32 L 162 32 Z " /><path fill="rgb(0,0,0)" stroke="rgb(0,0,0)" stroke-width="1" opacity="0" d="M 163.5 64 L 428.5 64 Q 438.8 66.8 444 74.5 L 448 83.5 L 448 348.5 Q 445.3 358.8 437.5 364 L 428.5 368 L 400 368 L 400 168.5 Q 395.3 141.3 377.5 127 L 359.5 116 L 343.5 112 L 144 112 L 144 83.5 Q 146.8 73.3 154.5 68 L 163.5 64 Z " /><path fill="rgb(0,0,0)" stroke="rgb(0,0,0)" stroke-width="1" opacity="0" d="M 91.5 144 L 340.5 144 Q 353 146.5 360 154.5 L 367 166.5 L 368 171.5 L 368 420.5 Q 365.5 433 357.5 440 L 345.5 447 L 340.5 448 L 91.5 448 Q 79 445.5 72 437.5 L 65 425.5 L 64 420.5 L 64 171.5 Q 66.8 158.3 75.5 151 L 86.5 145 L 91.5 144 Z " /></svg>