<?xml version="1.0" encoding="UTF-8"?>
<svg version="1.1" xmlns="http://www.w3.org/2000/svg" width="512" height="512">
<path d="M0 0 C1.68057291 -0.00935994 1.68057291 -0.00935994 3.39509678 -0.01890898 C7.12746656 -0.03478942 10.85917878 -0.02225344 14.59155273 -0.00964355 C17.27629485 -0.01506686 19.96099255 -0.02204667 22.64572144 -0.03088379 C29.16762859 -0.04862263 35.68935108 -0.04484983 42.21126533 -0.03323323 C47.51416009 -0.02418084 52.81700328 -0.02298269 58.11990356 -0.02732849 C58.87611042 -0.02794142 59.63231727 -0.02855436 60.41143948 -0.02918586 C61.94790484 -0.03046483 63.48437019 -0.03176168 65.02083552 -0.03307623 C79.41099183 -0.04446844 93.80104603 -0.0313897 108.19118559 -0.00987476 C120.52488773 0.00799501 132.85843925 0.00489051 145.19213867 -0.0135498 C159.53259604 -0.03498058 173.87296403 -0.04336993 188.21343517 -0.03110075 C189.74408657 -0.02982662 191.27473798 -0.02856914 192.8053894 -0.02732849 C193.55839862 -0.02671139 194.31140783 -0.02609429 195.08723551 -0.02545848 C200.38061748 -0.0220122 205.67394252 -0.02781833 210.96731567 -0.0372467 C217.42271179 -0.04849265 223.87791349 -0.04537239 230.33328748 -0.02412373 C233.62375574 -0.01364788 236.91383541 -0.01160341 240.20431137 -0.02272034 C243.77829276 -0.03368033 247.35136896 -0.01990496 250.92529297 0 C251.95546319 -0.00892289 252.98563341 -0.01784577 254.04702091 -0.02703905 C261.87164069 0.05726072 268.73831099 1.66686293 275.04858398 6.48059082 C275.93416992 7.51506348 275.93416992 7.51506348 276.83764648 8.57043457 C277.44350586 9.24203613 278.04936523 9.9136377 278.67358398 10.60559082 C283.6490596 18.67715934 285.05256875 26.66916044 284.96385193 36.01368713 C284.96938633 37.11858929 284.97492072 38.22349144 284.98062283 39.36187547 C284.99415263 43.03587736 284.97930121 46.70919086 284.96435547 50.38317871 C284.96814141 53.02865952 284.97349191 55.67409549 284.98072815 58.31956482 C284.99461322 64.74174871 284.98713987 71.16373507 284.97205257 77.58590943 C284.95513534 85.07390232 284.95840988 92.56184679 284.96214665 100.0498529 C284.96801646 113.41490751 284.95388773 126.77986772 284.92919922 140.14489746 C284.90527622 153.09708188 284.89819796 166.04914022 284.90869141 179.00134277 C284.9201144 193.12608996 284.922014 207.25077892 284.90759331 221.37552541 C284.90606756 222.88313162 284.90454721 224.39073783 284.9030323 225.89834404 C284.90227449 226.64000183 284.90151667 227.38165961 284.9007359 228.14579188 C284.89600412 233.35852099 284.8978366 238.57122401 284.9020977 243.78395271 C284.90703688 250.14048703 284.90098433 256.49690243 284.88120341 262.8534096 C284.87136802 266.09319353 284.86780699 269.33276101 284.87409592 272.57255936 C284.8800694 276.09162016 284.86750324 279.61015238 284.85032654 283.12916565 C284.85934161 284.65005211 284.85934161 284.65005211 284.8685388 286.20166355 C284.77793966 296.4386179 282.35374218 305.70930619 275.46264648 313.50793457 C270.59379643 317.37166217 266.05742684 319.62748837 259.77980709 319.64494896 C258.3275219 319.65256077 258.3275219 319.65256077 256.84589761 319.66032636 C255.24671176 319.661073 255.24671176 319.661073 253.61521912 319.66183472 C252.48448394 319.66621697 251.35374877 319.67059922 250.1887489 319.67511427 C246.37957444 319.68852574 242.57042313 319.69468645 238.76123047 319.70080566 C236.03812886 319.70817744 233.31503211 319.71696853 230.5919342 319.72558594 C222.40471534 319.75010967 214.2174904 319.76473804 206.03024611 319.77764601 C203.7173356 319.78135827 201.40442569 319.78533149 199.09151578 319.78939867 C184.7257756 319.81463801 170.36003446 319.83668914 155.994277 319.84912682 C152.66659479 319.85205648 149.33891261 319.85501814 146.01123047 319.85803223 C145.18415917 319.85877828 144.35708787 319.85952433 143.50495381 319.86029299 C130.11319235 319.87294089 116.72156383 319.90615611 103.32986449 319.94783406 C89.57746943 319.99028323 75.82514236 320.01382538 62.07268196 320.01904738 C54.35260318 320.02245837 46.63273205 320.03417632 38.91271782 320.06715012 C32.33638642 320.09519302 25.76030525 320.10613154 19.18391871 320.09495465 C15.83052529 320.08977831 12.47807871 320.09532893 9.12469101 320.1174202 C5.48234527 320.14010627 1.84131221 320.13181717 -1.80104065 320.11593628 C-2.8515495 320.12981837 -3.90205835 320.14370045 -4.98440081 320.15800321 C-12.97588421 320.07235673 -19.43112603 318.04309599 -25.56133276 312.76543653 C-33.21356987 304.72467516 -35.13814563 295.79106132 -35.05874634 284.98403931 C-35.06639743 283.8650685 -35.07404853 282.7460977 -35.08193147 281.59321868 C-35.10247311 277.86554027 -35.09463017 274.13848481 -35.08666992 270.4107666 C-35.09536949 267.72926818 -35.10560952 265.04781451 -35.11764526 262.36633301 C-35.14307286 255.85179377 -35.14673504 249.33741966 -35.14204474 242.82283916 C-35.13847071 237.52472566 -35.14199407 232.22666207 -35.15049362 226.92855453 C-35.151684 226.17292513 -35.15287438 225.41729572 -35.15410083 224.63876846 C-35.15652447 223.10343457 -35.15895274 221.56810068 -35.16138558 220.0327668 C-35.18311097 205.65209781 -35.1788237 191.27152275 -35.16661589 176.8908485 C-35.15627922 163.75302431 -35.17878826 150.61549677 -35.21681233 137.47773124 C-35.25561444 123.96690041 -35.27207326 110.45620976 -35.26456583 96.94532287 C-35.26074864 89.36835772 -35.26564955 81.79164502 -35.2939949 74.21472549 C-35.31788261 67.76444846 -35.32056597 61.31457929 -35.29641457 54.86429633 C-35.28467818 51.57745194 -35.28560686 48.29150203 -35.30641937 45.00468063 C-35.46091638 18.70273657 -35.46091638 18.70273657 -26.94944191 8.62846565 C-19.510479 1.37549965 -9.95998762 -0.08626909 0 0 Z M-3.53735352 31.50793457 C-3.72297852 73.70668457 -3.90860352 115.90543457 -4.09985352 159.38293457 C-4.16116455 172.72972656 -4.22247559 186.07651855 -4.28564453 199.82775879 C-4.33556303 211.7442752 -4.33556303 211.7442752 -4.38414001 223.66079712 C-4.40588968 228.98739008 -4.43040538 234.31396198 -4.45677185 239.64053345 C-4.49033234 246.42255017 -4.51874741 253.20456968 -4.54380405 259.986624 C-4.55385738 262.48335029 -4.56562689 264.98007036 -4.57925332 267.4767797 C-4.59733708 270.83407923 -4.60930241 274.19134459 -4.61964417 277.54867554 C-4.62644668 278.53865099 -4.63324919 279.52862644 -4.64025784 280.54860115 C-4.64175146 281.44461414 -4.64324509 282.34062714 -4.64478397 283.26379204 C-4.64820146 284.04069983 -4.65161894 284.81760763 -4.65513998 285.61805809 C-4.65530775 287.59761806 -4.65530775 287.59761806 -3.53735352 289.50793457 C81.27264648 289.50793457 166.08264648 289.50793457 253.46264648 289.50793457 C253.46264648 204.36793457 253.46264648 119.22793457 253.46264648 31.50793457 C168.65264648 31.50793457 83.84264648 31.50793457 -3.53735352 31.50793457 Z " fill="#000000" transform="translate(79.537353515625,147.4920654296875)"/>
<path d="M0 0 C1.13671615 -0.00779995 2.27343229 -0.01559991 3.44459438 -0.02363622 C7.23235967 -0.04349101 11.01911301 -0.02781584 14.80688477 -0.01205444 C17.53103698 -0.01608426 20.25514698 -0.02755807 22.97927856 -0.03860474 C29.59747153 -0.0607803 36.21538019 -0.05606151 42.83358407 -0.04154153 C48.21467172 -0.03022679 53.59567997 -0.02872802 58.97677612 -0.03416061 C59.74408442 -0.03492678 60.51139272 -0.03569294 61.30195278 -0.03648233 C62.86096615 -0.03808103 64.4199795 -0.0397021 65.97899282 -0.04134528 C80.58091101 -0.05558613 95.18267198 -0.03923627 109.78456438 -0.01234345 C122.30022123 0.00999386 134.81564616 0.00611326 147.33129883 -0.01693726 C161.88272065 -0.04372476 176.43400485 -0.05421299 190.98544788 -0.03887594 C192.5385672 -0.03728327 194.09168655 -0.03571142 195.64480591 -0.03416061 C196.40887156 -0.03338924 197.17293722 -0.03261786 197.96015638 -0.03182311 C203.33169684 -0.02751494 208.70314964 -0.03477354 214.07467651 -0.04655838 C220.62526589 -0.06061479 227.17555588 -0.0567179 233.72611117 -0.03015466 C237.06534211 -0.01705777 240.40366419 -0.01450521 243.74295425 -0.02840042 C247.36965777 -0.04209848 250.99496694 -0.02488522 254.62158203 0 C255.66731605 -0.01115361 256.71305006 -0.02230722 257.79047298 -0.03379881 C265.62217612 0.07017498 272.24631843 2.00723892 278.192132 7.31407869 C286.83548047 16.40404717 287.46312118 27.43772644 287.44450378 39.31124878 C287.44676934 40.3752757 287.4490349 41.43930261 287.45136911 42.53557277 C287.45769083 46.09506619 287.45688091 49.65452136 287.45605469 53.21401978 C287.45904733 55.76860096 287.4624501 58.3231817 287.4662323 60.87776184 C287.47414874 67.09355051 287.47728651 73.3093252 287.47784468 79.52511844 C287.47832054 84.58015998 287.48037877 89.6351984 287.4835453 94.69023895 C287.49234829 109.03625612 287.49696527 123.38226581 287.49621483 137.7282857 C287.4961549 138.8874228 287.4961549 138.8874228 287.49609375 140.06997681 C287.49605287 140.84368334 287.49601199 141.61738987 287.49596987 142.41454205 C287.49556357 154.94850679 287.50512992 167.48244146 287.51923212 180.01639751 C287.53361274 192.89994575 287.54050136 205.78347935 287.53963834 218.66703582 C287.53930694 225.89460632 287.54202909 233.12214531 287.55281639 240.34970856 C287.56290004 247.14916602 287.56256882 253.94854604 287.55529976 260.74801064 C287.5542553 263.23963582 287.55660857 265.73126517 287.56266022 268.22288322 C287.57040265 271.63221752 287.56572028 275.04132353 287.55802917 278.45065308 C287.56317274 279.42937449 287.5683163 280.4080959 287.57361573 281.41647553 C287.51660712 292.9048694 286.08951865 303.60713129 278.18579102 312.38491821 C268.89565674 320.69168862 258.23615731 320.26445802 246.42382812 320.15640259 C243.61900161 320.13488531 240.81671332 320.15631107 238.01196289 320.18179321 C236.21182709 320.17915109 234.41169285 320.1740285 232.61157227 320.16616821 C231.78224686 320.17426514 230.95292145 320.18236206 230.09846497 320.19070435 C224.37765079 320.0991719 221.0330843 318.89625918 216.31079102 315.63491821 C213.39439203 312.15570539 212.07835728 308.01538885 211.81079102 303.50991821 C212.53526708 297.89522871 214.7341641 295.05772787 218.87329102 291.32241821 C229.65523159 283.85799781 243.29157161 288.63491821 256.31079102 288.63491821 C255.81579102 161.41991821 255.81579102 161.41991821 255.31079102 31.63491821 C171.47997728 31.67453794 171.47997728 31.67453794 87.64916992 31.7250061 C71.47167969 31.72952271 71.47167969 31.72952271 63.90927124 31.73036194 C58.60352128 31.73129729 53.29778145 31.7349773 47.99203491 31.74049377 C41.2365123 31.74750728 34.48100679 31.74941511 27.72547984 31.74799049 C25.23852925 31.74828865 22.75157819 31.75028969 20.26463056 31.75413334 C16.92043035 31.75906421 13.57628754 31.75792403 10.23208618 31.75517273 C9.24600058 31.75808539 8.25991497 31.76099806 7.24394798 31.76399899 C6.35141949 31.76200811 5.45889099 31.76001724 4.53931618 31.75796604 C3.76544614 31.75834576 2.99157611 31.75872548 2.19425547 31.75911671 C0.31079102 31.63491821 0.31079102 31.63491821 -1.68920898 30.63491821 C-1.65778809 32.07943359 -1.65778809 32.07943359 -1.62573242 33.5531311 C-1.55291956 37.15177333 -1.50726101 40.75035145 -1.46948242 44.34951782 C-1.44946028 45.90236387 -1.42223381 47.4551354 -1.38745117 49.00772095 C-1.33851288 51.24952653 -1.3161473 53.49032915 -1.29858398 55.73257446 C-1.27793884 56.41828018 -1.2572937 57.1039859 -1.23602295 57.81047058 C-1.23352921 63.25942027 -2.72380011 66.23525929 -5.68920898 70.63491821 C-9.1453467 73.53197483 -13.2736161 74.86536311 -17.75170898 75.13491821 C-22.34713641 74.55137187 -25.19524503 73.65330406 -28.68920898 70.63491821 C-32.3193277 65.38644237 -33.2899312 60.44863608 -33.22045898 54.18179321 C-33.22428589 53.40031921 -33.22811279 52.61884521 -33.23205566 51.81369019 C-33.23476021 50.16993919 -33.22750176 48.52614408 -33.21069336 46.88247681 C-33.18937671 44.40441628 -33.21048209 41.92929286 -33.23608398 39.45132446 C-33.25592815 28.54325963 -32.58493829 18.12271799 -25.56420898 9.19741821 C-18.11310013 1.80412371 -10.23294365 -0.10914271 0 0 Z " fill="#000000" transform="translate(180.689208984375,44.365081787109375)"/>
</svg>
