<?xml version="1.0" encoding="UTF-8"?>
<svg version="1.1" xmlns="http://www.w3.org/2000/svg" width="24" height="24">
<path d="M0 0 C2.97 0 5.94 0 9 0 C9 0.66 9 1.32 9 2 C6.69 2 4.38 2 2 2 C2 6.62 2 11.24 2 16 C6.62 16 11.24 16 16 16 C16 13.69 16 11.38 16 9 C16.66 9 17.32 9 18 9 C18 11.97 18 14.94 18 18 C12.06 18 6.12 18 0 18 C0 12.06 0 6.12 0 0 Z " fill="#000000" transform="translate(3,3)"/>
<path d="M0 0 C2.31 0 4.62 0 7 0 C7 2.31 7 4.62 7 7 C5.68 7 4.36 7 3 7 C1.23682295 8.2812243 1.23682295 8.2812243 -0.25 10 C-1.03117188 10.8353125 -1.03117188 10.8353125 -1.828125 11.6875 C-2.21484375 12.120625 -2.6015625 12.55375 -3 13 C-3.99 12.67 -4.98 12.34 -6 12 C-4.44499019 8.18315774 -1.96404505 5.80804268 1 3 C0.67 2.01 0.34 1.02 0 0 Z " fill="#000000" transform="translate(14,3)"/>
</svg>
