<?xml version="1.0" encoding="UTF-8"?>
<svg version="1.1" xmlns="http://www.w3.org/2000/svg" width="512" height="512">
<path d="M0 0 C1.87364376 -0.00706784 3.74728182 -0.01581647 5.62091064 -0.02610779 C10.68051265 -0.04850491 15.73980045 -0.04568621 20.79943299 -0.03678632 C25.02946949 -0.03166027 29.25944779 -0.03898142 33.48947829 -0.04625839 C43.46553129 -0.06322387 53.44143116 -0.05972213 63.41748047 -0.04296875 C73.70433336 -0.02601695 83.99076285 -0.04193159 94.27756959 -0.07419163 C103.1220052 -0.10087585 111.96630889 -0.10816768 120.8107807 -0.09967655 C126.08816579 -0.09474811 131.36529565 -0.09695991 136.6426487 -0.11746407 C141.59969311 -0.13580504 146.55612634 -0.12988185 151.51313782 -0.10526466 C153.33120099 -0.1002534 155.14931065 -0.10375471 156.96733665 -0.11641312 C159.4504703 -0.13233488 161.93158854 -0.11740372 164.41462708 -0.09474182 C165.13281783 -0.10657755 165.85100859 -0.11841328 166.59096271 -0.13060766 C172.20721163 -0.02655669 174.50479306 1.69995123 178.31323242 5.53344727 C180.17556667 9.25811576 179.88454071 13.4784004 179.31323242 17.53344727 C177.64115773 20.65922869 175.52760893 22.92625901 172.31323242 24.53344727 C169.95102442 24.63649922 167.61781595 24.67952392 165.25509644 24.6782074 C164.51990914 24.68173424 163.78472183 24.68526109 163.02725613 24.68889481 C160.55079795 24.69961388 158.07437819 24.70326839 155.59790039 24.70703125 C153.82735531 24.71333425 152.05681182 24.72009977 150.28627014 24.72729492 C146.46612758 24.74198527 142.64599122 24.75370192 138.82583237 24.76324272 C132.78295765 24.77867548 126.74013561 24.80262606 120.69729614 24.82814026 C103.51104055 24.89939027 86.32475438 24.95906967 69.13842773 25.01025391 C59.65210448 25.03858158 50.16583326 25.07397912 40.6795646 25.11690766 C34.67555725 25.14365024 28.6716088 25.16157424 22.66755366 25.1729449 C18.9250542 25.18208999 15.18262598 25.19946144 11.44016838 25.21912384 C9.70842678 25.22657913 7.97666688 25.23067918 6.24490929 25.23111916 C3.87422259 25.2322075 1.50389517 25.2455071 -0.86672974 25.26170349 C-1.54632441 25.25908664 -2.22591908 25.25646978 -2.92610753 25.25377363 C-10.30136546 25.33206321 -16.93024047 26.69273129 -22.68676758 31.53344727 C-26.99330329 37.18835518 -27.81007372 43.06185035 -27.81540203 49.99706841 C-27.81862648 51.06303336 -27.82185092 52.12899832 -27.82517308 53.22726524 C-27.82362448 54.38717951 -27.82207588 55.54709379 -27.82048035 56.74215698 C-27.8227459 57.98303892 -27.82501146 59.22392086 -27.82734567 60.50240529 C-27.83257684 63.93950006 -27.83333124 67.37654247 -27.83215129 70.8136375 C-27.83194704 74.52333497 -27.83746838 78.23302467 -27.84220886 81.94271851 C-27.85051035 89.20773866 -27.85326347 96.47275069 -27.85382124 103.73777519 C-27.8542966 109.64336218 -27.85635234 115.54894649 -27.85952187 121.45453262 C-27.86832675 138.20116842 -27.87294145 154.94779781 -27.87219139 171.69443594 C-27.87213146 173.04826461 -27.87213146 173.04826461 -27.87207031 174.42944336 C-27.87202943 175.33309876 -27.87198855 176.23675416 -27.87194643 177.16779305 C-27.87153992 191.81516707 -27.88111126 206.46251539 -27.89520868 221.10988198 C-27.90957252 236.15283747 -27.91647887 251.19578043 -27.9156149 266.23874295 C-27.91528296 274.68298562 -27.9180291 283.12720134 -27.92879295 291.57143784 C-27.93789801 298.76034784 -27.94007313 305.94921868 -27.93328353 313.13813196 C-27.93001847 316.80492465 -27.92996115 320.47164219 -27.93863678 324.13842773 C-27.94795065 328.11591005 -27.94172543 332.09328261 -27.93400574 336.07077026 C-27.9391493 337.2262231 -27.94429286 338.38167593 -27.94959229 339.57214248 C-27.91278428 348.14569592 -27.43841479 355.69365058 -21.68676758 362.53344727 C-16.03185967 366.83998298 -10.1583645 367.65675341 -3.22314644 367.66208172 C-2.15718148 367.66530616 -1.09121653 367.66853061 0.0070504 367.67185277 C1.16696467 367.67030417 2.32687895 367.66875556 3.52194214 367.66716003 C4.76282408 367.66942559 6.00370602 367.67169115 7.28219044 367.67402536 C10.71928521 367.67925652 14.15632763 367.68001093 17.59342265 367.67883098 C21.30312012 367.67862673 25.01280982 367.68414806 28.72250366 367.68888855 C35.98752381 367.69719004 43.25253585 367.69994316 50.51756035 367.70050093 C56.42314733 367.70097629 62.32873164 367.70303203 68.23431778 367.70620155 C84.98095358 367.71500644 101.72758297 367.71962114 118.4742211 367.71887108 C119.82804977 367.71881115 119.82804977 367.71881115 121.20922852 367.71875 C122.11288391 367.71870912 123.01653931 367.71866824 123.94757821 367.71862612 C138.59495223 367.7182196 153.24230055 367.72779095 167.88966714 367.74188837 C182.93262263 367.75625221 197.97556558 367.76315856 213.0185281 367.76229459 C221.46277078 367.76196264 229.9069865 367.76470879 238.35122299 367.77547264 C245.540133 367.78457769 252.72900384 367.78675282 259.91791712 367.77996322 C263.58470981 367.77669816 267.25142735 367.77664084 270.91821289 367.78531647 C274.8956952 367.79463033 278.87306776 367.78840511 282.85055542 367.78068542 C284.58373467 367.78840077 284.58373467 367.78840077 286.35192764 367.79627198 C294.92548108 367.75946397 302.47343574 367.28509448 309.31323242 361.53344727 C314.1109863 355.23352124 314.46506132 348.63041936 314.43780518 340.98083496 C314.43921532 340.24081883 314.44062547 339.5008027 314.44207835 338.73836184 C314.44571545 336.26964697 314.44240174 333.80099012 314.43920898 331.33227539 C314.44060454 329.55789648 314.44250437 327.7835179 314.44487 326.00914001 C314.44935939 322.19342277 314.45122291 318.37771627 314.45133209 314.56199646 C314.45247399 308.52775352 314.46532267 302.49357153 314.480896 296.45935059 C314.48346885 295.44031065 314.4860417 294.4212707 314.48869252 293.37135077 C314.49395873 291.28798671 314.49924421 289.2046227 314.50454855 287.12125874 C314.5396487 273.07684181 314.56620694 259.03250158 314.5637207 244.98803711 C314.56213277 235.50823991 314.57814899 226.02865138 314.61442733 216.54892111 C314.63289324 211.5341395 314.64222422 206.51970638 314.62995148 201.50489807 C314.61852358 196.79002755 314.63019771 192.07578172 314.65958595 187.36099434 C314.66623098 185.63163444 314.66435208 183.90221744 314.65328789 182.17288017 C314.63942431 179.80985943 314.65629809 177.44895042 314.6807251 175.08605957 C314.66936972 174.4033677 314.65801434 173.72067582 314.64631486 173.01729631 C314.75640298 167.53312105 316.58787823 165.26599641 320.31323242 161.53344727 C324.03790091 159.67111302 328.25818556 159.96213898 332.31323242 160.53344727 C335.43901385 162.20552196 337.70604417 164.31907076 339.31323242 167.53344727 C339.4173753 170.0150159 339.46103044 172.46891795 339.46040344 174.95103455 C339.46408013 175.72494067 339.46775682 176.4988468 339.47154492 177.29620463 C339.48260647 179.90385657 339.48642986 182.5114687 339.49023438 185.11914062 C339.49649743 186.9833387 339.50314408 188.84753552 339.51014709 190.71173096 C339.5275776 195.78863113 339.53811558 200.86552186 339.54635262 205.94244456 C339.55150105 209.11551181 339.55757702 212.28857613 339.56386375 215.46164131 C339.58292611 225.39232993 339.59715203 235.32301109 339.60547572 245.2537145 C339.61523693 256.71036453 339.64152291 268.16682076 339.68197662 279.62340254 C339.7121752 288.48044335 339.72694836 297.33742877 339.73025674 306.19452006 C339.73260398 311.48280937 339.74152134 316.77089191 339.76671791 322.0591259 C339.79006744 327.04057562 339.7942042 332.02168349 339.78395653 337.00317383 C339.78346264 338.8255941 339.78973937 340.64803157 339.80351257 342.47039986 C339.91193985 357.67532591 337.65123797 368.6996497 327.31323242 380.53344727 C319.8593993 387.61309198 310.12636259 392.64874422 299.79173946 392.66766834 C298.09703845 392.67435511 298.09703845 392.67435511 296.36810106 392.68117696 C294.50583221 392.68090042 294.50583221 392.68090042 292.60594177 392.68061829 C291.28721433 392.68429497 289.96848689 392.68797166 288.60979801 392.69175977 C284.94596072 392.7017727 281.28213982 392.70549543 277.61829078 392.70814908 C273.66786814 392.71205426 269.71745844 392.7216325 265.76704407 392.73036194 C256.22464038 392.75012099 246.68223564 392.76019216 237.13981661 392.76908973 C232.6449027 392.77347382 228.14998996 392.77884034 223.65507698 392.7840786 C208.71057982 392.80109084 193.76608339 392.81558445 178.82157803 392.82282734 C174.94371477 392.8247372 171.06585152 392.82665754 167.18798828 392.82861328 C165.74227063 392.82933889 165.74227063 392.82933889 164.26734657 392.83007916 C148.65833397 392.83837737 133.04939807 392.86371078 117.44041895 392.89619396 C101.41101176 392.92927978 85.38164351 392.94727751 69.352202 392.95047158 C60.35391329 392.95263534 51.3557364 392.96136429 42.357481 392.98693275 C34.69317759 393.00866061 27.02901315 393.01667995 19.36468243 393.00696597 C15.45644397 393.0024272 11.54849211 393.00428254 7.64029312 393.02372742 C4.05667848 393.04140278 0.47355858 393.04032653 -3.11006164 393.02483013 C-5.008541 393.02134508 -6.90702582 393.03744779 -8.80543238 393.0544346 C-21.54348896 392.9592267 -31.11170124 388.89822522 -40.68676758 380.53344727 C-47.76488928 373.08121765 -52.79910096 363.34966961 -52.82378197 353.01754093 C-52.83139378 351.32469002 -52.83139378 351.32469002 -52.83915937 349.5976401 C-52.83990601 347.73741761 -52.83990601 347.73741761 -52.84066772 345.83961487 C-52.84504998 344.52229856 -52.84943223 343.20498225 -52.85394728 341.84774727 C-52.86590369 338.18777359 -52.87155909 334.52781309 -52.87612844 330.86782372 C-52.88208821 326.92145114 -52.89369726 322.97509427 -52.90441895 319.0287323 C-52.92893653 309.49522034 -52.94357028 299.96170318 -52.95647901 290.4281694 C-52.96019177 287.73450533 -52.96416495 285.04084178 -52.96823168 282.34717822 C-52.99347185 265.61326311 -53.015521 248.87934716 -53.02795982 232.14541721 C-53.03088944 228.26963358 -53.03385111 224.39384997 -53.03686523 220.51806641 C-53.03761129 219.55477926 -53.03835734 218.59149212 -53.03912599 217.59901445 C-53.05177189 202.00426691 -53.0849848 186.40963358 -53.12666707 170.81493939 C-53.16912928 154.79682345 -53.19265991 138.7787659 -53.19788039 122.76059383 C-53.20128992 113.77003658 -53.21299077 104.77965772 -53.24598312 95.78915596 C-53.27404393 88.13001479 -53.28495666 80.4710886 -53.27378766 72.81190003 C-53.26861613 68.9074011 -53.27138872 65.00335192 -53.2962532 61.09891891 C-53.31887638 57.5163447 -53.31790635 53.93453988 -53.29904933 50.351951 C-53.29496102 48.45891154 -53.31529839 46.56586643 -53.33683622 44.67294508 C-53.21806852 31.7306879 -48.904352 20.71868928 -39.68676758 11.53344727 C-27.54012559 1.04133126 -15.34758594 -0.06113631 0 0 Z " fill="#000000" transform="translate(88.686767578125,83.466552734375)"/>
<path d="M0 0 C2.32735382 2.14389409 4.56934762 4.34757651 6.79206848 6.5997467 C7.60951035 7.41240494 8.42695221 8.22506317 9.26916504 9.06234741 C10.98354837 10.77334833 12.69171454 12.49059942 14.39387512 14.21376038 C16.98420714 16.83087466 19.60014974 19.42022274 22.21980286 22.00794983 C23.8913301 23.68278145 25.56130547 25.35916363 27.22956848 27.0372467 C28.39060844 28.18310493 28.39060844 28.18310493 29.57510376 29.35211182 C38.00058338 37.9599649 42.09563592 47.07929577 42.67878723 59.15052795 C42.00925969 71.67069294 35.96453241 80.62395224 27.27282715 89.18467712 C26.42890421 90.03569445 25.58498128 90.88671177 24.71548492 91.7635175 C22.39100605 94.10246601 20.05577413 96.4299916 17.71533263 98.75294685 C15.18609709 101.26874125 12.67138327 103.79898323 10.15473938 106.32736206 C5.23087633 111.26955472 0.29373108 116.19826646 -4.64828578 121.122299 C-8.66538637 125.12534701 -12.67736404 129.13346416 -16.68576622 133.14522171 C-17.25727876 133.7172117 -17.82879131 134.28920168 -18.41762241 134.8785247 C-19.57876234 136.040691 -20.73988777 137.20287179 -21.90099885 138.3650669 C-32.15640168 148.62902703 -42.42435282 158.88034316 -52.69889832 169.12513733 C-62.66109582 179.0584885 -72.61233525 189.00265997 -82.55241394 198.95814514 C-93.38779415 209.81029657 -104.229519 220.65603803 -115.08203477 231.49105561 C-116.23976533 232.64694185 -117.3974911 233.80283289 -118.55521202 234.95872879 C-119.12478221 235.52738689 -119.6943524 236.09604499 -120.28118229 236.68193515 C-124.28852555 240.68367962 -128.29140626 244.68985467 -132.29264259 248.69770432 C-137.16986056 253.58266352 -142.05427619 258.46028961 -146.94791452 263.3288012 C-149.44302138 265.81143278 -151.93488029 268.29710162 -154.41814995 270.79157829 C-157.11272522 273.49808391 -159.82267783 276.18885044 -162.53430176 278.87828064 C-163.31301472 279.66523437 -164.09172769 280.45218811 -164.89403802 281.26298892 C-171.48570395 287.75542894 -178.05828555 292.00418149 -187.47209167 292.44764709 C-188.28038422 292.48761307 -189.08867676 292.52757904 -189.92146301 292.5687561 C-191.22148758 292.62663551 -191.22148758 292.62663551 -192.54777527 292.6856842 C-193.45063263 292.72866135 -194.35348999 292.77163849 -195.28370667 292.81591797 C-197.19504464 292.90602487 -199.10647658 292.99415702 -201.01799011 293.08045959 C-203.91488548 293.21160969 -206.81139993 293.34948969 -209.70793152 293.48841858 C-211.57119398 293.57541039 -213.43447476 293.66201112 -215.29777527 293.7481842 C-216.57958176 293.80909996 -216.57958176 293.80909996 -217.88728333 293.87124634 C-241.57663682 294.92551327 -241.57663682 294.92551327 -250.72355652 287.7247467 C-257.00257325 281.53784269 -260.20088252 274.51649312 -260.39811707 265.72108459 C-260.32909758 261.58896295 -260.18566814 257.46660275 -260.00871277 253.33802795 C-259.95187685 251.85172581 -259.8957282 250.36539723 -259.84025574 248.87904358 C-259.7290701 245.95927981 -259.6105188 243.03995711 -259.48576355 240.1207428 C-259.34700128 236.77274286 -259.23105442 233.42558962 -259.12980652 230.0763092 C-259.06978549 228.43433868 -259.00870996 226.7924061 -258.94621277 225.15052795 C-258.92776306 224.44823059 -258.90931335 223.74593323 -258.89030457 223.02235413 C-258.51949298 215.02006402 -256.68658206 209.31785976 -251.23273373 203.40907001 C-250.42469417 202.53313021 -249.61665462 201.65719041 -248.78412902 200.75470698 C-245.14815604 196.91018951 -241.45380008 193.13171365 -237.71343994 189.38885498 C-236.8960953 188.56712809 -236.07875067 187.7454012 -235.23663801 186.89877349 C-232.5263636 184.17525792 -229.81262268 181.45522501 -227.09880066 178.73524475 C-225.14284858 176.77189356 -223.18758793 174.80785421 -221.23223877 172.84390259 C-215.39141761 166.9787283 -209.54579899 161.11834748 -203.69926491 155.25886866 C-202.04606253 153.60194515 -200.39298595 151.94489624 -198.7399528 150.28780389 C-188.45258117 139.97521279 -178.16361451 129.6642159 -167.86986637 119.35798931 C-165.49400966 116.97920351 -163.11816931 114.60040137 -160.74235535 112.22157288 C-159.85673984 111.3348383 -159.85673984 111.3348383 -158.95323312 110.43018989 C-149.37535837 100.83964337 -139.80782425 91.23884857 -130.24443955 81.63385525 C-120.4065338 71.75350008 -110.55919743 61.88262289 -100.70265573 52.02085811 C-95.17629585 46.49109021 -89.6541474 40.95725597 -84.14261055 35.41271019 C-79.4533207 30.69537903 -74.75556763 25.98668608 -70.04664952 21.28894462 C-67.64706601 18.89453493 -65.25316992 16.49510003 -62.86722565 14.08705521 C-60.27491744 11.47204971 -57.66756591 8.87300486 -55.05596924 6.27728271 C-54.31304707 5.52047846 -53.5701249 4.76367421 -52.80468994 3.98393649 C-38.13440576 -10.4682256 -16.65920894 -13.27355323 0 0 Z M-43.22746277 29.86146545 C-43.83763245 30.47446503 -44.44780212 31.0874646 -45.07646179 31.71903992 C-46.99618934 33.6498312 -48.90878718 35.58750677 -50.82121277 37.52552795 C-52.13324453 38.84760739 -53.44574062 40.16922618 -54.75871277 41.4903717 C-57.95159662 44.70513238 -61.13811275 47.92608072 -64.32121277 51.15052795 C-62.82590953 54.64024799 -60.82929615 56.8851819 -58.14689636 59.55189514 C-57.28615509 60.41248535 -56.42541382 61.27307556 -55.53858948 62.15974426 C-54.60833954 63.07967163 -53.6780896 63.999599 -52.71965027 64.94740295 C-51.7580019 65.90531893 -50.79679583 66.8636791 -49.83601379 67.82246399 C-47.31197995 70.33887921 -44.78199685 72.84922903 -42.25071716 75.35835266 C-39.66642086 77.92215236 -37.08781078 80.49165713 -34.50871277 83.0606842 C-29.4517558 88.09622252 -24.3884902 93.12537356 -19.32121277 98.15052795 C-16.50366463 96.86597251 -14.44275078 95.52384665 -12.25260925 93.3407135 C-11.68199265 92.77640121 -11.11137604 92.21208893 -10.52346802 91.63067627 C-9.61704308 90.71817863 -9.61704308 90.71817863 -8.69230652 89.7872467 C-8.06139603 89.15824966 -7.43048553 88.52925262 -6.78045654 87.88119507 C-5.44921467 86.55131227 -4.12048749 85.21890808 -2.79411316 83.88417053 C-0.76951285 81.84888504 1.26549845 79.82445483 3.30183411 77.80091858 C4.59609547 76.50533522 5.88973609 75.20913139 7.18269348 73.9122467 C7.78900101 73.30998764 8.39530853 72.70772858 9.01998901 72.08721924 C13.21774522 67.8428275 16.34228632 64.43125637 17.24128723 58.33802795 C16.76078059 48.86549471 5.71346276 40.87889153 -0.60758972 34.60340881 C-2.39016544 32.83161431 -4.16172331 31.04930024 -5.93254089 29.26576233 C-7.07317573 28.12644815 -8.21443031 26.98775401 -9.35636902 25.8497467 C-9.88045853 25.32160873 -10.40454803 24.79347076 -10.94451904 24.24932861 C-15.09192713 20.15413062 -18.30652525 17.44777693 -24.13371277 16.58802795 C-31.91196256 16.89508801 -38.09069806 24.63186656 -43.22746277 29.86146545 Z M-87.34542608 74.04099786 C-87.92158242 74.61938492 -88.49773875 75.19777198 -89.09135437 75.79368591 C-89.69995253 76.40072408 -90.30855069 77.00776225 -90.93559122 77.63319552 C-92.99166188 79.68525045 -95.04410767 81.74089385 -97.09660339 83.79652405 C-98.56288201 85.26144886 -100.02937354 86.72616058 -101.49606323 88.19067383 C-105.49209937 92.18213271 -109.48494356 96.17677068 -113.47710991 100.17209959 C-117.64586072 104.34337298 -121.81704039 108.51221638 -125.98783875 112.68144226 C-132.99415755 119.68593887 -139.99835867 126.6925479 -147.00138855 133.70033264 C-155.10823453 141.81261921 -163.21867399 149.92129972 -171.33099413 158.02811182 C-178.28313062 164.97571608 -185.23332353 171.92526014 -192.18188429 178.87644064 C-196.3375051 183.03362389 -200.49380665 187.19012048 -204.65185547 191.34487534 C-208.5610236 195.25116324 -212.46775347 199.15987315 -216.37258339 203.07049751 C-217.8096913 204.50893229 -219.24765939 205.94650823 -220.68652916 207.38318062 C-222.64368974 209.33762681 -224.59777288 211.29509763 -226.55107117 213.25340271 C-227.1272275 213.82732832 -227.70338384 214.40125394 -228.29699945 214.99257123 C-233.1172715 219.83699787 -233.53453616 222.74875671 -233.85636902 229.4122467 C-233.92083473 230.64827385 -233.92083473 230.64827385 -233.98660278 231.90927124 C-234.07687947 233.65681945 -234.16499981 235.40448017 -234.25114441 237.15223694 C-234.38233618 239.81013868 -234.52011826 242.4676329 -234.65910339 245.12513733 C-234.74608373 246.82498712 -234.83268423 248.52485639 -234.91886902 250.2247467 C-234.95947952 251.01354721 -235.00009003 251.80234772 -235.04193115 252.61505127 C-235.11452223 254.10143581 -235.18047281 255.58816449 -235.23872375 257.07518005 C-235.31753337 259.0579577 -235.42499909 261.03953429 -235.53385925 263.02088928 C-235.55569075 266.06658823 -235.55569075 266.06658823 -234.21672058 268.08119202 C-231.40440177 269.66773972 -229.20152004 269.40340246 -225.99308777 269.25990295 C-224.7248114 269.21075745 -223.45653503 269.16161194 -222.14982605 269.11097717 C-220.79022987 269.04196901 -219.43069219 268.97179928 -218.07121277 268.90052795 C-216.69478407 268.8361115 -215.31831879 268.77247225 -213.94181824 268.70960999 C-211.25820089 268.58513883 -208.57550996 268.45162735 -205.89250183 268.31361389 C-203.01707479 268.18230508 -200.15970684 268.10689381 -197.28215027 268.09584045 C-196.01629089 268.07263733 -194.75043152 268.0494342 -193.44621277 268.02552795 C-191.90320496 268.02166077 -191.90320496 268.02166077 -190.32902527 268.01771545 C-180.80123242 265.27074141 -172.1781535 253.1404046 -165.28605652 246.22889709 C-163.87624239 244.81880054 -162.46620733 243.40892486 -161.05596924 241.99925232 C-157.24647135 238.19004024 -153.44005514 234.37776238 -149.63420105 230.56491017 C-145.64950785 226.5739473 -141.66196487 222.5858338 -137.67472839 218.59741211 C-130.13292672 211.05250776 -122.59367687 203.50505888 -115.05534935 195.95668358 C-106.46964261 187.35978264 -97.88108146 178.76573577 -89.29228401 170.1719228 C-71.63209113 152.50128962 -53.97547073 134.82709042 -36.32121277 117.15052795 C-39.65235224 113.20428511 -43.00628953 109.34024182 -46.65837097 105.68397522 C-47.45552017 104.88367386 -48.25266937 104.0833725 -49.07397461 103.25881958 C-49.91482101 102.41999741 -50.75566742 101.58117523 -51.62199402 100.7169342 C-52.49897446 99.83899704 -53.3759549 98.96105988 -54.2795105 98.05651855 C-56.12136567 96.21398616 -57.96447117 94.37270285 -59.8087616 92.53260803 C-61.70284086 90.64212999 -63.59551396 88.75038669 -65.48551941 86.85585022 C-68.21585448 84.11937372 -70.94958734 81.38634092 -73.68449402 78.6544342 C-74.96094536 77.37494652 -74.96094536 77.37494652 -76.26318359 76.0696106 C-77.04457199 75.29137436 -77.82596039 74.51313812 -78.63102722 73.71131897 C-79.32130508 73.0218367 -80.01158295 72.33235443 -80.72277832 71.62197876 C-83.83313592 68.75871577 -84.77197328 71.48044074 -87.34542608 74.04099786 Z " fill="#000000" transform="translate(424.3212127685547,53.84947204589844)"/>
</svg>
