<?xml version="1.0" encoding="UTF-8"?>
<svg version="1.1" xmlns="http://www.w3.org/2000/svg" width="512" height="512">
<path d="M0 0 C3.89433744 0.30904241 7.78954593 0.6067421 11.68463945 0.906075 C18.20150982 1.40850897 24.71772577 1.91878719 31.23355913 2.43448687 C38.72841752 3.02761552 46.22405439 3.60993032 53.72022712 4.1861943 C61.78113428 4.80596817 69.84143873 5.43331953 77.90157795 6.06299305 C80.19509761 6.24168184 82.48871905 6.41900943 84.78236818 6.59602785 C88.39620159 6.87533182 92.00959643 7.15978576 95.62272882 7.44801188 C97.55560568 7.60111814 99.48885257 7.749531 101.42211199 7.89772844 C122.32509965 9.58303533 140.80372017 13.60455555 155.75211382 29.40714312 C169.10741533 45.19068126 171.5229773 63.08004615 173.05143023 83.01895952 C173.15971163 84.38594882 173.26839187 85.75290657 173.37743425 87.11983538 C173.66928852 90.79601665 173.95485394 94.47265886 174.23862171 98.14947224 C174.41744727 100.46264581 174.5976722 102.77570615 174.77837038 105.08873415 C175.41237817 113.20490107 176.04121438 121.32144966 176.66519976 129.43839312 C177.24095579 136.92617846 177.82803824 144.41301583 178.42056 151.89949143 C178.93342399 158.38617101 179.43801347 164.87346245 179.93659198 171.36125553 C180.23244488 175.20932326 180.53127518 179.05709216 180.83858919 182.90426302 C182.00841221 197.58736398 183.01815428 212.22723019 183.06217241 226.96720171 C183.06699947 228.0636935 183.07182653 229.1601853 183.07679987 230.28990412 C183.02276437 238.1086454 182.21197743 244.70065422 178.81461382 251.84464312 C178.39051226 252.7869478 177.96641069 253.72925249 177.52945757 254.70011187 C172.09723397 265.67047986 162.82430103 273.98400174 154.26447344 282.54195452 C153.34574556 283.46435909 152.42701768 284.38676365 151.48044956 285.33711988 C148.95888153 287.86858247 146.43428292 290.39700264 143.90910006 292.92485869 C141.17518144 295.66271753 138.44408451 298.40338898 135.71254778 301.14362383 C129.13446741 307.74135229 122.55164375 314.33433809 115.96819264 320.92670676 C113.48492585 323.41348803 111.00197506 325.90058468 108.51904095 328.38769811 C97.56036627 339.36481857 86.60034514 350.34059261 75.63629389 361.31234312 C72.96069827 363.98984829 70.28510808 366.66735888 67.60953569 369.34488726 C66.9446223 370.01028439 66.2797089 370.67568153 65.59464662 371.36124221 C54.81283909 382.15135838 44.03958504 392.94997275 33.2698582 403.75214543 C22.19273066 414.8623709 11.10806132 425.96502644 0.01596916 437.06031209 C-6.20382108 443.28226357 -12.42030464 449.50744077 -18.62836027 455.7411027 C-23.91161846 461.04610424 -29.20170015 466.34418162 -34.50069283 471.63346847 C-37.20082193 474.32906509 -39.89767436 477.02773078 -42.58578253 479.73531961 C-45.50677253 482.67729395 -48.44321422 485.60335979 -51.38127851 488.52828264 C-52.63720306 489.80066106 -52.63720306 489.80066106 -53.91849983 491.09874409 C-67.86071596 504.89143595 -82.41380893 510.12119119 -101.66878462 510.16373491 C-109.54094734 510.06342373 -115.90573564 508.99260011 -123.18538618 505.84464312 C-124.06065962 505.49401812 -124.93593306 505.14339312 -125.83772993 504.78214312 C-139.3577834 498.78248919 -149.88198323 485.30828677 -160.18221235 475.0248189 C-161.8864128 473.32689361 -163.59079918 471.62915494 -165.29535627 469.9315877 C-170.38000495 464.86603852 -175.46045578 459.79629123 -180.54002354 454.72564822 C-182.45791512 452.81127523 -184.37611955 450.89721588 -186.2943395 448.98317192 C-194.76658291 440.52936829 -203.23748212 432.07422041 -211.70436335 423.61504602 C-213.76825912 421.55305964 -215.83216041 419.49107878 -217.89607954 417.42911577 C-218.40895532 416.91672373 -218.9218311 416.40433169 -219.45024858 415.87641262 C-227.76692227 407.56804747 -236.09208744 399.26824554 -244.42081269 390.9719633 C-252.99530455 382.4305975 -261.56219539 373.88166713 -270.12173587 365.32531774 C-274.91846157 360.53075034 -279.71838078 355.73948158 -284.52683783 350.95667696 C-289.04761111 346.4592228 -293.55871992 341.95229302 -298.06271505 337.43803835 C-299.71237627 335.78788276 -301.3654349 334.14111513 -303.02220869 332.49810076 C-318.61400759 317.02853002 -329.33827226 303.1675107 -329.49788618 280.34464312 C-329.51765201 271.39877576 -328.75665888 264.13425293 -325.18538618 255.84464312 C-324.85796431 254.9925728 -324.53054243 254.14050249 -324.19319868 253.26261187 C-317.49935572 237.74950865 -300.86072717 225.35781131 -289.11762512 213.60218024 C-286.39535454 210.87595869 -283.67589955 208.14693057 -280.9560008 205.41834307 C-274.41285589 198.85558508 -267.86499925 192.29753823 -261.31650457 185.74011904 C-258.84577718 183.26587466 -256.37536427 180.79131642 -253.90496732 178.31674213 C-242.99959635 167.39293295 -232.09288322 156.47046591 -221.18214273 145.5520196 C-218.5220001 142.88996749 -215.86186294 140.22790991 -213.2017436 137.56583452 C-212.54068951 136.90429669 -211.87963543 136.24275887 -211.1985494 135.56117444 C-200.47116197 124.8254722 -189.75233188 114.08126808 -179.03701215 103.33352239 C-168.01293092 92.27635481 -156.98131889 81.22674626 -145.9422794 70.18451202 C-139.75329121 63.99336209 -133.56761359 57.7989829 -127.39035559 51.59612703 C-122.13565534 46.31969975 -116.87415206 41.05017668 -111.60372155 35.78945978 C-108.91787713 33.10815182 -106.23532573 30.42375954 -103.56149244 27.73046923 C-100.65775661 24.80578662 -97.73861521 21.89697013 -94.81781721 18.98932695 C-93.98287652 18.14341702 -93.14793584 17.29750709 -92.28769392 16.42596352 C-85.36883005 9.58192884 -77.90867508 4.68803064 -68.87288618 1.03214312 C-67.90737837 0.6338228 -66.94187056 0.23550249 -65.94710493 -0.17488813 C-46.3480338 -7.13297421 -20.50809169 -1.63819705 0 0 Z M-69.70373869 40.97988558 C-71.3895104 42.6466725 -73.0671988 44.32165998 -74.73830366 46.00315142 C-75.66928318 46.92803983 -76.6002627 47.85292825 -77.55945373 48.80584359 C-80.12856364 51.35862453 -82.68831527 53.92060912 -85.24653363 56.48429847 C-88.01279248 59.25323615 -90.78764865 62.01353609 -93.56134748 64.77501726 C-98.98776742 70.1804187 -104.40594057 75.59401337 -109.82096782 81.01082548 C-114.22299496 85.41416177 -118.62757507 89.81492841 -123.03396559 94.21389818 C-124.30460909 95.48244243 -125.57525176 96.75098751 -126.84589362 98.0195334 C-127.79461618 98.96669066 -127.79461618 98.96669066 -128.76250485 99.93298241 C-140.71405618 111.86564664 -152.65563331 123.80825434 -164.59433034 135.75377724 C-175.51195783 146.67698203 -186.44273439 157.58692052 -197.37968668 168.49077311 C-208.6172597 179.6946008 -219.84551154 190.90769349 -231.06391406 202.13071752 C-237.3593651 208.42841199 -243.6584957 214.72231849 -249.96751356 221.00642443 C-255.33727391 226.35516114 -260.69822374 231.71254045 -266.04802886 237.08123931 C-268.77644505 239.81880568 -271.50869374 242.55222655 -274.25201178 245.27486658 C-277.22851503 248.22918163 -280.18519943 251.20257955 -283.14040327 254.17820024 C-284.43960868 255.45862888 -284.43960868 255.45862888 -285.76506066 256.76492476 C-292.43929876 263.53842649 -296.7592961 270.00384351 -296.74788618 279.78214312 C-296.76980024 280.88429155 -296.79171431 281.98643999 -296.81429243 283.12198687 C-295.31197872 292.01456428 -290.24504755 298.52540625 -283.96303511 304.7019124 C-283.24640786 305.4263396 -282.52978061 306.1507668 -281.79143739 306.89714634 C-279.4074365 309.30095546 -277.00612841 311.68665267 -274.60433149 314.07267046 C-272.88319162 315.80059126 -271.16311598 317.52957268 -269.44402266 319.25952959 C-265.2689903 323.45494521 -261.08241182 327.63860869 -256.88992503 331.81656401 C-253.48131374 335.21385214 -250.07765206 338.6160271 -246.67741346 342.02169466 C-245.94963203 342.75062534 -245.94963203 342.75062534 -245.20714794 343.4942819 C-244.22132406 344.48170451 -243.23551135 345.46913829 -242.2497097 346.4565831 C-233.0210621 355.69946378 -223.77719479 364.92700036 -214.52798876 374.1493022 C-206.60168914 382.0532582 -198.68859986 389.97024119 -190.78499556 397.89688921 C-181.59259677 407.11607698 -172.39210112 416.32705911 -163.17863107 425.52519238 C-162.19528427 426.50694653 -161.21194786 427.48871108 -160.22862196 428.47048616 C-159.7448799 428.95345685 -159.26113784 429.43642753 -158.76273693 429.93403368 C-155.36340608 433.32905736 -151.96989115 436.72982764 -148.5786128 440.13289309 C-144.0103834 444.71665178 -139.42895248 449.28694471 -134.83854246 453.84849215 C-133.15768386 455.52274933 -131.48104735 457.20125777 -129.8090167 458.88433123 C-127.52262426 461.18442575 -125.22131971 463.46850643 -122.91567183 465.74927568 C-122.2604911 466.41561002 -121.60531037 467.08194436 -120.93027568 467.76847064 C-115.14392555 473.43466619 -108.4177019 477.22501488 -100.21663618 477.87589312 C-87.78461512 477.68463125 -80.00014537 470.10581958 -71.67716169 461.73082781 C-70.75097129 460.81072851 -69.82478089 459.89062921 -68.87052411 458.94264811 C-66.31474667 456.40319883 -63.76832703 453.8545472 -61.22344077 451.3041898 C-58.47147787 448.54954794 -55.71091745 445.80354423 -52.95151472 443.05635881 C-47.5528331 437.67869594 -42.16239869 432.2928397 -36.77510981 426.90376601 C-32.39502114 422.52236807 -28.01237909 418.14354026 -23.6279273 413.76650858 C-22.36347805 412.50415859 -21.09902963 411.24180777 -19.83458203 409.97945613 C-19.2051728 409.35109043 -18.57576358 408.72272473 -17.92728134 408.07531764 C-6.03340349 396.2003274 5.85049958 384.31539326 17.7315229 372.42754408 C28.59351019 361.55998091 39.46864172 350.70567984 50.34995612 339.85747132 C61.53216913 328.70901515 72.70504856 317.55128183 83.86808616 306.38362426 C90.1317116 300.11775635 96.39900812 293.8556685 102.67620707 287.60339594 C108.01959605 282.28104563 113.35415167 276.95003072 118.67758533 271.60771809 C121.39195323 268.88420879 124.11013053 266.16482337 126.83940935 263.45624971 C129.80244696 260.51544239 132.745612 257.55549986 135.68734026 254.59337664 C136.54667341 253.74656133 137.40600656 252.89974603 138.29138011 252.02726966 C145.14126219 245.07531975 150.42335788 237.89818637 150.36984682 227.82398939 C150.33647345 226.98461616 150.30310007 226.14524292 150.26871538 225.28043413 C150.24983389 224.34887027 150.2309524 223.4173064 150.21149874 222.45751333 C149.84602179 209.00751013 148.758248 195.57849498 147.72512007 182.16622663 C147.48626412 179.05495131 147.25221911 175.94332019 147.01793265 172.831698 C146.46471898 165.48814767 145.90244485 158.14532989 145.33463335 150.80289507 C144.75241081 143.27154968 144.18755982 135.73903664 143.63076043 128.20577282 C143.1480464 121.68459772 142.65367597 115.16437366 142.15033031 108.64475876 C141.85161936 104.77354774 141.55730499 100.9021373 141.2746892 97.02971506 C141.00896641 93.39468911 140.72857081 89.76107308 140.43746042 86.12799501 C140.28516539 84.18364469 140.14743139 82.23817038 140.01036882 80.29268694 C139.06823113 68.86549971 137.26837162 58.05483156 128.95523882 49.64933062 C119.49291253 41.67196794 107.3707341 41.37450315 95.56119585 40.48429155 C94.01956727 40.36307575 92.477983 40.24129537 90.93643999 40.11899614 C86.76745651 39.79022101 82.5978377 39.47033471 78.42798138 39.152843 C74.93893055 38.88660026 71.45017672 38.6165664 67.9614023 38.34672999 C59.72661515 37.71011617 51.49125406 37.0813369 43.25553179 36.4569478 C34.77716661 35.81398033 26.30008713 35.15567674 17.82346499 34.49015832 C10.52883208 33.91811157 3.23342967 33.35671536 -4.062657 32.80352092 C-8.41284842 32.4735135 -12.76261474 32.13931726 -17.1116519 31.79440355 C-21.20331728 31.47027867 -25.29578714 31.15949781 -29.38922834 30.85865831 C-30.88508008 30.74650516 -32.38059433 30.62973269 -33.87568235 30.50782061 C-48.75724893 29.29980586 -58.63124553 30.43278191 -69.70373869 40.97988558 Z " fill="#000000" transform="translate(329.1853861808777,2.1553568840026855)"/>
<path d="M0 0 C11.38736144 9.82316344 20.10697095 24.48037223 21.78125 39.640625 C22.95964405 56.1200125 20.20764584 72.0411883 9.67578125 85.2890625 C7.45711619 87.83231711 5.16120151 90.2483634 2.78125 92.640625 C2.17796875 93.27871094 1.5746875 93.91679687 0.953125 94.57421875 C-9.68658092 104.95949692 -25.7018793 109.47063822 -40.21875 109.640625 C-57.27123041 108.65472142 -73.4238774 102.61292815 -85.30859375 89.99609375 C-96.99237384 75.58848763 -102.52160854 59.0646054 -100.65625 40.578125 C-98.57053719 23.6174227 -90.4383048 9.52731719 -77.21875 -1.359375 C-53.29710444 -18.18536349 -23.57493227 -17.28065424 0 0 Z M-62.21875 30.640625 C-67.43738771 38.57865208 -69.09163012 45.31907388 -67.21875 54.578125 C-64.99277218 62.51945127 -60.95249285 68.30293699 -53.84375 72.578125 C-45.41288412 76.67962732 -38.26488975 77.4415779 -29.21875 74.640625 C-22.29187295 71.61997284 -16.54950504 66.21948419 -13.1171875 59.4765625 C-9.93424659 51.05813 -10.28756013 43.13552616 -13.96484375 34.9609375 C-18.005923 27.48305253 -24.00421643 22.59589909 -32.16796875 20.02734375 C-44.17453498 17.7632484 -54.20978341 21.4800423 -62.21875 30.640625 Z " fill="#000000" transform="translate(414.21875,89.359375)"/>
</svg>
