<?xml version="1.0" encoding="UTF-8"?>
<svg version="1.1" xmlns="http://www.w3.org/2000/svg" width="512" height="512">
<path d="M0 0 C1.42241082 1.15965642 2.83947966 2.32590974 4.25 3.5 C4.85457031 3.97050781 5.45914063 4.44101563 6.08203125 4.92578125 C21.25875319 17.08771418 32.44895972 38.70374757 35.00390625 57.984375 C36.81985292 83.92647035 32.79656605 109.27282497 15.24755859 129.64331055 C14.76906652 130.20299121 14.29057446 130.76267187 13.79758263 131.33931255 C8.58338569 137.37199346 3.03793802 143.05870803 -2.5859375 148.70703125 C-3.67930982 149.80940425 -4.77262111 150.91183779 -5.86587524 152.014328 C-8.12945745 154.2941924 -10.39720829 156.56981615 -12.66748047 158.84301758 C-15.57443028 161.75542036 -18.46474671 164.68378506 -21.35170555 167.61598682 C-23.59092141 169.88487853 -25.84124136 172.1424995 -28.09483719 174.39710045 C-29.1666518 175.4731135 -30.2343564 176.55323724 -31.29777145 177.63755226 C-32.7760042 179.14258354 -34.26915577 180.63106708 -35.76708984 182.11645508 C-36.61105316 182.96548904 -37.45501648 183.81452301 -38.32455444 184.68928528 C-40.75 186.5 -40.75 186.5 -43.49893188 186.83647156 C-45.75 186.5 -45.75 186.5 -46.75 185.5 C-46.77145181 183.22917243 -46.73956145 180.95783206 -46.6875 178.6875 C-46.61003146 172.07685141 -46.97205392 165.57798645 -47.625 159 C-47.70355225 158.17653076 -47.78210449 157.35306152 -47.86303711 156.50463867 C-48.26952859 152.64863158 -48.82480372 148.96902645 -49.8203125 145.21875 C-50.63134417 141.97462334 -51.0759826 139.78089154 -50.75 136.5 C-49.49960327 134.67524719 -49.49960327 134.67524719 -47.72412109 132.9699707 C-47.06278168 132.32191971 -46.40144226 131.67386871 -45.72006226 131.00617981 C-44.99517609 130.31964828 -44.27028992 129.63311676 -43.5234375 128.92578125 C-42.78300201 128.2019072 -42.04256653 127.47803314 -41.2796936 126.73222351 C-38.90636285 124.41338559 -36.5175586 122.11148276 -34.125 119.8125 C-31.75456979 117.53071335 -29.38840989 115.24524543 -27.03457642 112.94633484 C-25.57078298 111.51690725 -24.09765788 110.09694803 -22.61361694 108.68855286 C-12.54312818 98.86145126 -7.02057105 87.01555185 -6.5 72.9375 C-6.6976263 59.77558851 -11.35619158 46.89380842 -20.75 37.5 C-33.57949136 27.08034155 -46.54727398 24.22558927 -62.75 25.5 C-82.23008436 29.04367439 -95.19041661 44.77477536 -108.60546875 58.1171875 C-109.57153769 59.07714315 -109.57153769 59.07714315 -110.55712318 60.05649185 C-113.95921891 63.43789315 -117.35814689 66.8224429 -120.75463867 70.20947266 C-124.23588771 73.6796281 -127.72867256 77.13793032 -131.22411633 80.59377861 C-133.9376418 83.28102731 -136.6421177 85.97725057 -139.34432411 88.67587662 C-140.6273975 89.95412114 -141.91380831 91.22902574 -143.20378685 92.50030136 C-155.70837292 104.83461277 -166.72625489 118.15314157 -167 136.5625 C-166.83591043 149.80900319 -162.58303794 161.43181296 -153.5625 171.3125 C-146.76205283 177.54878451 -138.51576999 181.74881713 -129.61328125 183.9921875 C-127.75 184.5 -127.75 184.5 -126.75 185.5 C-126.34301758 188.17260742 -126.34301758 188.17260742 -126.75 191.5 C-128.52573247 193.84879183 -130.16899412 195.71525758 -132.26171875 197.73828125 C-133.10957695 198.58763496 -133.10957695 198.58763496 -133.9745636 199.45414734 C-135.17045722 200.64536962 -136.37371947 201.82923401 -137.58374023 203.00610352 C-139.43136047 204.80651733 -141.25086956 206.6321183 -143.06835938 208.46289062 C-144.23540344 209.6187806 -145.40397438 210.77313143 -146.57421875 211.92578125 C-147.11713058 212.4705159 -147.66004242 213.01525055 -148.21940613 213.57649231 C-151.25254977 216.4984707 -153.45581993 218.34717409 -157.75 218.5 C-178.54229612 210.61326699 -192.95998941 192.04779579 -202.3984375 172.69140625 C-212.20281869 149.54059865 -211.13366084 123.44837897 -202.125 100.3125 C-197.4890637 90.18297919 -190.86316297 81.56789322 -183.29492188 73.45996094 C-182.7799691 72.9055772 -182.26501633 72.35119347 -181.73445892 71.78001022 C-175.51182067 65.12010557 -169.09094428 58.65717326 -162.65625 52.203125 C-162.00924637 51.55329399 -161.36224274 50.90346298 -160.69563293 50.23394012 C-157.28037777 46.80385389 -153.86238423 43.37652628 -150.44189453 39.95166016 C-146.94566662 36.44992846 -143.45884066 32.93898744 -139.97406769 29.42586136 C-137.25598073 26.68902121 -134.5310826 23.95903788 -131.80436707 21.23079681 C-130.51668042 19.94011871 -129.23145146 18.64698302 -127.94892883 17.3511734 C-93.61315825 -17.31524802 -42.31849492 -32.45371063 0 0 Z " fill="#000000" transform="translate(391.75,102.5)"/>
<path d="M0 0 C11.04362325 3.06525602 19.37566491 11.01439098 27.28442383 18.91162109 C27.9418457 19.55744141 28.59926758 20.20326172 29.27661133 20.86865234 C44.83237808 37.32048861 51.9518605 60.76673449 51.53051758 83.04833984 C49.37684196 116.85762853 32.11467599 137.2048366 9.14770508 160.32177734 C8.37908834 161.09571775 7.61047161 161.86965816 6.81856346 162.66705132 C2.75316941 166.75900843 -1.3157829 170.84739284 -5.38720703 174.93334961 C-8.72923668 178.28872427 -12.0638418 181.65121927 -15.39208984 185.02026367 C-19.44368044 189.12148018 -23.50769689 193.20999509 -27.58063698 197.29000664 C-29.11687274 198.83289816 -30.64889865 200.37999474 -32.17633629 201.93159676 C-50.35996814 220.38650809 -71.65780362 234.79284978 -98.5715332 235.15307617 C-126.14635658 235.23112233 -148.16926618 226.8326567 -168.27807617 207.78662109 C-185.54754344 190.15075777 -192.97389426 167.10944819 -192.96435547 142.80078125 C-192.64737997 113.84427164 -177.97457845 92.84276849 -158.26245117 73.15771484 C-157.07255769 71.96392533 -155.88288479 70.76991592 -154.69342041 69.57569885 C-152.21915209 67.0940267 -149.74112068 64.616189 -147.26049805 62.14086914 C-144.08222602 58.96843689 -140.91557369 55.78467233 -137.75178146 52.59780788 C-135.30691973 50.13823811 -132.85519199 47.68560448 -130.40140533 45.23494148 C-129.23007316 44.06309635 -128.06109896 42.88888929 -126.89455414 41.71227837 C-125.2700153 40.07542622 -123.63625338 38.44837033 -121.99975586 36.82348633 C-121.07346375 35.89656479 -120.14717163 34.96964325 -119.19281006 34.01463318 C-116.87634841 32.04810637 -115.70905667 31.12929869 -112.71557617 30.91162109 C-112.05557617 31.24162109 -111.39557617 31.57162109 -110.71557617 31.91162109 C-110.73128662 32.51409668 -110.74699707 33.11657227 -110.76318359 33.73730469 C-111.0333361 45.74940202 -110.80475272 57.19577095 -108.46948242 69.00146484 C-108.22069336 70.29181641 -107.9719043 71.58216797 -107.71557617 72.91162109 C-107.52850098 73.57049316 -107.34142578 74.22936523 -107.14868164 74.90820312 C-106.47804995 77.78303823 -106.25813976 80.10072104 -107.73706055 82.72241211 C-109.6097736 84.93532693 -111.61952798 86.90736146 -113.71557617 88.91162109 C-114.72281762 89.90941104 -115.72804813 90.90923343 -116.73168945 91.91064453 C-120.83272582 95.9868565 -124.95649277 100.04014684 -129.11181641 104.06103516 C-141.46762791 116.0374071 -149.68356207 127.07330881 -150.70385742 144.84912109 C-150.75609956 158.5017321 -145.3509635 171.17617055 -135.87963867 181.01318359 C-125.45737709 190.15617841 -113.07048545 193.3270982 -99.47729492 193.18505859 C-80.22518845 191.78563237 -68.13437378 178.94044515 -55.32104492 166.04833984 C-53.75988496 164.48987985 -52.19813209 162.93201358 -50.63581848 161.37471008 C-47.37762925 158.12239028 -44.12671325 154.86301801 -40.88085938 151.59838867 C-36.73766245 147.43238553 -32.57673672 143.28462767 -28.410182 139.14200115 C-25.18657411 135.9329039 -21.97262322 132.71427045 -18.76143837 129.49274635 C-17.23148721 127.96014347 -15.69860511 126.43046025 -14.16264915 124.90387535 C-1.48960497 112.29125087 9.22726567 100.16255827 9.53442383 81.34912109 C9.37640658 68.45491384 4.91418261 56.1077068 -3.90307617 46.53271484 C-10.86476416 40.30620511 -18.89395497 36.68327911 -27.71557617 33.91162109 C-28.70557617 33.58162109 -29.69557617 33.25162109 -30.71557617 32.91162109 C-30.41141751 26.78209982 -28.40819552 23.69117871 -24.17651367 19.50537109 C-23.33789291 18.65102478 -23.33789291 18.65102478 -22.48233032 17.77941895 C-21.30119888 16.5854922 -20.11232094 15.39918483 -18.91625977 14.22021484 C-17.09188067 12.41291338 -15.30801419 10.57134071 -13.52416992 8.72412109 C-12.36888142 7.56560939 -11.21139942 6.40928008 -10.05151367 5.25537109 C-9.52206146 4.70345093 -8.99260925 4.15153076 -8.44711304 3.58288574 C-5.48751045 0.73073204 -4.17610672 -0.09933311 0 0 Z " fill="#000000" transform="translate(277.715576171875,192.08837890625)"/>
</svg>
