<svg width="512" height="512" version="1.1" xmlns="http://www.w3.org/2000/svg" desc="Created with imagetracer.js version 1.2.6" ><path fill="rgb(0,0,0)" stroke="rgb(0,0,0)" stroke-width="1" opacity="0" d="M 0 0 L 512 0 L 512 512 L 0 512 L 0 0 Z M 157 48 L 156 49 L 130 50 L 105 55 Q 84 61 71 73 Q 49 90 38 118 L 31 143 L 30 156 L 29 157 L 29 166 L 28 167 L 28 181 L 27 182 L 27 331 L 28 332 L 29 356 L 30 357 L 32 375 L 38 395 Q 45 412 57 426 Q 72 444 96 454 L 123 461 L 139 462 L 140 463 L 156 463 L 157 464 L 356 464 L 357 463 L 373 463 L 374 462 L 383 462 L 384 461 L 396 460 L 417 454 Q 431 448 442 439 Q 463 422 474 395 L 480 375 L 482 357 L 483 356 L 483 347 L 484 346 L 484 331 L 485 330 L 485 183 L 484 182 L 483 157 L 482 156 L 480 138 L 474 118 Q 467 100 455 87 Q 445 74 431 65 L 408 55 L 383 50 L 357 49 L 356 48 L 157 48 Z " /><path fill="rgb(0,0,0)" stroke="rgb(0,0,0)" stroke-width="1" opacity="0" d="M 165.5 80 L 186.5 80 L 187 80.5 L 187 432 L 144.5 431 L 143.5 430 L 133.5 430 L 116.5 427 Q 96.7 421.8 85 408.5 L 70 387.5 L 65 373.5 L 61 351.5 L 60 324.5 L 59 323.5 L 59 188.5 L 60 187.5 L 61 160.5 L 65 138.5 L 71 122.5 L 87.5 101 Q 98.7 89.7 116.5 85 L 133.5 82 L 164.5 81 L 165.5 80 Z M 105 133 L 99 135 L 91 145 Q 89 154 93 159 L 102 165 L 133 165 L 140 161 L 144 154 Q 145 144 141 140 Q 137 135 131 133 L 105 133 Z M 105 197 L 99 199 L 91 209 Q 89 218 93 223 L 102 229 L 133 229 L 140 225 L 144 218 Q 145 208 141 204 Q 137 199 131 197 L 105 197 Z " /><path fill="rgb(0,0,0)" stroke="rgb(0,0,0)" stroke-width="1" opacity="0" d="M 219 80 L 346.5 80 L 347.5 81 L 378.5 82 L 395.5 85 L 404.5 88 Q 418.8 93.8 428 104.5 L 442 124.5 L 447 138.5 L 451 160.5 L 452 188.5 L 453 189.5 L 453 322.5 L 452 323.5 L 451 351.5 L 447 373.5 L 441 389.5 L 424.5 411 Q 416.3 419.3 404.5 424 L 395.5 427 L 378.5 430 L 347.5 431 L 346.5 432 L 219 432 L 219 80 Z " /><path fill="rgb(0,0,0)" stroke="rgb(0,0,0)" stroke-width="1" opacity="0.7568627450980392" d="M 156.5 48 L 183 48.5 L 156.5 49 L 156.5 48 Z " /><path fill="rgb(0,0,0)" stroke="rgb(0,0,0)" stroke-width="1" opacity="0.7568627450980392" d="M 329.5 48 L 356 48.5 L 329.5 49 L 329.5 48 Z " /><path fill="rgb(0,0,0)" stroke="rgb(0,0,0)" stroke-width="1" opacity="0.7568627450980392" d="M 139.5 49 L 146 49.5 L 139.5 50 L 139.5 49 Z " /><path fill="rgb(0,0,0)" stroke="rgb(0,0,0)" stroke-width="1" opacity="0.7568627450980392" d="M 366.5 49 L 373 49.5 L 366.5 50 L 366.5 49 Z " /><path fill="rgb(0,0,0)" stroke="rgb(0,0,0)" stroke-width="1" opacity="0.7568627450980392" d="M 129.5 50 L 134 50.5 L 129.5 51 L 129.5 50 Z " /><path fill="rgb(0,0,0)" stroke="rgb(0,0,0)" stroke-width="1" opacity="0.7568627450980392" d="M 378.5 50 L 383 50.5 L 378.5 51 L 378.5 50 Z " /><path fill="rgb(0,0,0)" stroke="rgb(0,0,0)" stroke-width="1" opacity="0.7568627450980392" d="M 122.5 51 L 126 51.5 L 122.5 52 L 122.5 51 Z " /><path fill="rgb(0,0,0)" stroke="rgb(0,0,0)" stroke-width="1" opacity="0.7568627450980392" d="M 386.5 51 L 390 51.5 L 386.5 52 L 386.5 51 Z " /><path fill="rgb(0,0,0)" stroke="rgb(0,0,0)" stroke-width="1" opacity="0.7568627450980392" d="M 393.5 52 L 396 52.5 L 393.5 53 L 393.5 52 Z " /><path fill="rgb(0,0,0)" stroke="rgb(0,0,0)" stroke-width="1" opacity="0.7568627450980392" d="M 81.5 65 L 80.5 67 L 81.5 65 Z " /><path fill="rgb(0,0,0)" stroke="rgb(0,0,0)" stroke-width="1" opacity="0.7568627450980392" d="M 430.5 65 L 431.5 67 L 430.5 65 Z " /><path fill="rgb(0,0,0)" stroke="rgb(0,0,0)" stroke-width="1" opacity="0.7568627450980392" d="M 78.5 67 L 77.5 69 L 78.5 67 Z " /><path fill="rgb(0,0,0)" stroke="rgb(0,0,0)" stroke-width="1" opacity="0.7568627450980392" d="M 433.5 67 L 434.5 69 L 433.5 67 Z " /><path fill="rgb(0,0,0)" stroke="rgb(0,0,0)" stroke-width="1" opacity="0.7568627450980392" d="M 436.5 69 L 438.5 72 L 436.5 69 Z " /><path fill="rgb(0,0,0)" stroke="rgb(0,0,0)" stroke-width="1" opacity="0.7568627450980392" d="M 74.5 70 L 73.5 72 L 74.5 70 Z " /><path fill="rgb(0,0,0)" stroke="rgb(0,0,0)" stroke-width="1" opacity="0.7568627450980392" d="M 70.5 73 L 57.5 87 L 70.5 73 Z " /><path fill="rgb(0,0,0)" stroke="rgb(0,0,0)" stroke-width="1" opacity="0.7568627450980392" d="M 441.5 73 L 454.5 87 L 441.5 73 Z " /><path fill="rgb(0,0,0)" stroke="rgb(0,0,0)" stroke-width="1" opacity="0.7568627450980392" d="M 151.5 80 L 165 80.5 L 151.5 81 L 151.5 80 Z " /><path fill="rgb(0,0,0)" stroke="rgb(0,0,0)" stroke-width="1" opacity="0.7568627450980392" d="M 218.5 80 L 219 431.5 L 218 431.5 L 218.5 80 Z " /><path fill="rgb(0,0,0)" stroke="rgb(0,0,0)" stroke-width="1" opacity="0.7568627450980392" d="M 347.5 80 L 361 80.5 L 347.5 81 L 347.5 80 Z " /><path fill="rgb(0,0,0)" stroke="rgb(0,0,0)" stroke-width="1" opacity="0.7568627450980392" d="M 138.5 81 L 144 81.5 L 138.5 82 L 138.5 81 Z " /><path fill="rgb(0,0,0)" stroke="rgb(0,0,0)" stroke-width="1" opacity="0.7568627450980392" d="M 368.5 81 L 374 81.5 L 368.5 82 L 368.5 81 Z " /><path fill="rgb(0,0,0)" stroke="rgb(0,0,0)" stroke-width="1" opacity="0.7568627450980392" d="M 129.5 82 L 133 82.5 L 129.5 83 L 129.5 82 Z " /><path fill="rgb(0,0,0)" stroke="rgb(0,0,0)" stroke-width="1" opacity="0.7568627450980392" d="M 379.5 82 L 383 82.5 L 379.5 83 L 379.5 82 Z " /><path fill="rgb(0,0,0)" stroke="rgb(0,0,0)" stroke-width="1" opacity="0.7568627450980392" d="M 123.5 83 L 126 83.5 L 123.5 84 L 123.5 83 Z " /><path fill="rgb(0,0,0)" stroke="rgb(0,0,0)" stroke-width="1" opacity="0.7568627450980392" d="M 386.5 83 L 389 83.5 L 386.5 84 L 386.5 83 Z " /><path fill="rgb(0,0,0)" stroke="rgb(0,0,0)" stroke-width="1" opacity="0.7568627450980392" d="M 118.5 84 L 121 84.5 L 118.5 85 L 118.5 84 Z " /><path fill="rgb(0,0,0)" stroke="rgb(0,0,0)" stroke-width="1" opacity="0.7568627450980392" d="M 54.5 90 L 53.5 92 L 54.5 90 Z " /><path fill="rgb(0,0,0)" stroke="rgb(0,0,0)" stroke-width="1" opacity="0.7568627450980392" d="M 457.5 90 L 458.5 92 L 457.5 90 Z " /><path fill="rgb(0,0,0)" stroke="rgb(0,0,0)" stroke-width="1" opacity="0.7568627450980392" d="M 96.5 93 L 94.5 96 L 96.5 93 Z " /><path fill="rgb(0,0,0)" stroke="rgb(0,0,0)" stroke-width="1" opacity="0.7568627450980392" d="M 415.5 93 L 416.5 95 L 415.5 93 Z " /><path fill="rgb(0,0,0)" stroke="rgb(0,0,0)" stroke-width="1" opacity="0.7568627450980392" d="M 51.5 94 L 50.5 96 L 51.5 94 Z " /><path fill="rgb(0,0,0)" stroke="rgb(0,0,0)" stroke-width="1" opacity="0.7568627450980392" d="M 460.5 94 L 461.5 96 L 460.5 94 Z " /><path fill="rgb(0,0,0)" stroke="rgb(0,0,0)" stroke-width="1" opacity="0.7568627450980392" d="M 92.5 96 L 88.5 101 L 92.5 96 Z " /><path fill="rgb(0,0,0)" stroke="rgb(0,0,0)" stroke-width="1" opacity="0.7568627450980392" d="M 419.5 96 L 423.5 101 L 419.5 96 Z " /><path fill="rgb(0,0,0)" stroke="rgb(0,0,0)" stroke-width="1" opacity="0.7568627450980392" d="M 49.5 97 L 48.5 99 L 49.5 97 Z " /><path fill="rgb(0,0,0)" stroke="rgb(0,0,0)" stroke-width="1" opacity="0.7568627450980392" d="M 462.5 97 L 463.5 99 L 462.5 97 Z " /><path fill="rgb(0,0,0)" stroke="rgb(0,0,0)" stroke-width="1" opacity="0.7568627450980392" d="M 47.5 100 L 46.5 102 L 47.5 100 Z " /><path fill="rgb(0,0,0)" stroke="rgb(0,0,0)" stroke-width="1" opacity="0.7568627450980392" d="M 464.5 100 L 465.5 102 L 464.5 100 Z " /><path fill="rgb(0,0,0)" stroke="rgb(0,0,0)" stroke-width="1" opacity="0.7568627450980392" d="M 84.5 104 L 80.5 109 L 84.5 104 Z " /><path fill="rgb(0,0,0)" stroke="rgb(0,0,0)" stroke-width="1" opacity="0.7568627450980392" d="M 428.5 105 L 431.5 109 L 428.5 105 Z " /><path fill="rgb(0,0,0)" stroke="rgb(0,0,0)" stroke-width="1" opacity="0.7568627450980392" d="M 43.5 107 L 42.5 109 L 43.5 107 Z " /><path fill="rgb(0,0,0)" stroke="rgb(0,0,0)" stroke-width="1" opacity="0.7568627450980392" d="M 78.5 111 L 77.5 113 L 78.5 111 Z " /><path fill="rgb(0,0,0)" stroke="rgb(0,0,0)" stroke-width="1" opacity="0.7568627450980392" d="M 433.5 111 L 434.5 113 L 433.5 111 Z " /><path fill="rgb(0,0,0)" stroke="rgb(0,0,0)" stroke-width="1" opacity="0.7568627450980392" d="M 75.5 115 L 74.5 117 L 75.5 115 Z " /><path fill="rgb(0,0,0)" stroke="rgb(0,0,0)" stroke-width="1" opacity="0.7568627450980392" d="M 436.5 115 L 437.5 117 L 436.5 115 Z " /><path fill="rgb(0,0,0)" stroke="rgb(0,0,0)" stroke-width="1" opacity="0.7568627450980392" d="M 72.5 120 L 71.5 122 L 72.5 120 Z " /><path fill="rgb(0,0,0)" stroke="rgb(0,0,0)" stroke-width="1" opacity="0.7568627450980392" d="M 439.5 120 L 440.5 122 L 439.5 120 Z " /><path fill="rgb(0,0,0)" stroke="rgb(0,0,0)" stroke-width="1" opacity="0.7568627450980392" d="M 104.5 133 L 131 133.5 L 104.5 134 L 104.5 133 Z " /><path fill="rgb(0,0,0)" stroke="rgb(0,0,0)" stroke-width="1" opacity="0.7568627450980392" d="M 98.5 135 L 97.5 137 L 98.5 135 Z " /><path fill="rgb(0,0,0)" stroke="rgb(0,0,0)" stroke-width="1" opacity="0.7568627450980392" d="M 137.5 136 L 140.5 140 L 137.5 136 Z " /><path fill="rgb(0,0,0)" stroke="rgb(0,0,0)" stroke-width="1" opacity="0.7568627450980392" d="M 32.5 137 L 33 139.5 L 32 139.5 L 32.5 137 Z " /><path fill="rgb(0,0,0)" stroke="rgb(0,0,0)" stroke-width="1" opacity="0.7568627450980392" d="M 479.5 137 L 480 139.5 L 479 139.5 L 479.5 137 Z " /><path fill="rgb(0,0,0)" stroke="rgb(0,0,0)" stroke-width="1" opacity="0.7568627450980392" d="M 94.5 139 L 93.5 141 L 94.5 139 Z " /><path fill="rgb(0,0,0)" stroke="rgb(0,0,0)" stroke-width="1" opacity="0.7568627450980392" d="M 141.5 141 L 143 143.5 L 142 143.5 L 141.5 141 Z " /><path fill="rgb(0,0,0)" stroke="rgb(0,0,0)" stroke-width="1" opacity="0.7568627450980392" d="M 31.5 142 L 32 144.5 L 31 144.5 L 31.5 142 Z " /><path fill="rgb(0,0,0)" stroke="rgb(0,0,0)" stroke-width="1" opacity="0.7568627450980392" d="M 63.5 144 L 64 146.5 L 63 146.5 L 63.5 144 Z " /><path fill="rgb(0,0,0)" stroke="rgb(0,0,0)" stroke-width="1" opacity="0.7568627450980392" d="M 448.5 144 L 449 146.5 L 448 146.5 L 448.5 144 Z " /><path fill="rgb(0,0,0)" stroke="rgb(0,0,0)" stroke-width="1" opacity="0.7568627450980392" d="M 30.5 148 L 31 151.5 L 30 151.5 L 30.5 148 Z " /><path fill="rgb(0,0,0)" stroke="rgb(0,0,0)" stroke-width="1" opacity="0.7568627450980392" d="M 62.5 149 L 63 151.5 L 62 151.5 L 62.5 149 Z " /><path fill="rgb(0,0,0)" stroke="rgb(0,0,0)" stroke-width="1" opacity="0.7568627450980392" d="M 449.5 149 L 450 152.5 L 449 152.5 L 449.5 149 Z " /><path fill="rgb(0,0,0)" stroke="rgb(0,0,0)" stroke-width="1" opacity="0.7568627450980392" d="M 481.5 149 L 482 151.5 L 481 151.5 L 481.5 149 Z " /><path fill="rgb(0,0,0)" stroke="rgb(0,0,0)" stroke-width="1" opacity="0.7568627450980392" d="M 143.5 151 L 144 153.5 L 143 153.5 L 143.5 151 Z " /><path fill="rgb(0,0,0)" stroke="rgb(0,0,0)" stroke-width="1" opacity="0.7568627450980392" d="M 29.5 156 L 30 159.5 L 29 159.5 L 29.5 156 Z " /><path fill="rgb(0,0,0)" stroke="rgb(0,0,0)" stroke-width="1" opacity="0.7568627450980392" d="M 61.5 156 L 62 159.5 L 61 159.5 L 61.5 156 Z " /><path fill="rgb(0,0,0)" stroke="rgb(0,0,0)" stroke-width="1" opacity="0.7568627450980392" d="M 450.5 156 L 451 159.5 L 450 159.5 L 450.5 156 Z " /><path fill="rgb(0,0,0)" stroke="rgb(0,0,0)" stroke-width="1" opacity="0.7568627450980392" d="M 482.5 156 L 483 160.5 L 482 160.5 L 482.5 156 Z " /><path fill="rgb(0,0,0)" stroke="rgb(0,0,0)" stroke-width="1" opacity="0.7568627450980392" d="M 93.5 158 L 97.5 163 L 93.5 158 Z " /><path fill="rgb(0,0,0)" stroke="rgb(0,0,0)" stroke-width="1" opacity="0.7568627450980392" d="M 136.5 162 L 135.5 164 L 136.5 162 Z " /><path fill="rgb(0,0,0)" stroke="rgb(0,0,0)" stroke-width="1" opacity="0.7568627450980392" d="M 60.5 164 L 61 169.5 L 60 169.5 L 60.5 164 Z " /><path fill="rgb(0,0,0)" stroke="rgb(0,0,0)" stroke-width="1" opacity="0.7568627450980392" d="M 451.5 164 L 452 169.5 L 451 169.5 L 451.5 164 Z " /><path fill="rgb(0,0,0)" stroke="rgb(0,0,0)" stroke-width="1" opacity="0.7568627450980392" d="M 28.5 166 L 29 171.5 L 28 171.5 L 28.5 166 Z " /><path fill="rgb(0,0,0)" stroke="rgb(0,0,0)" stroke-width="1" opacity="0.7568627450980392" d="M 483.5 166 L 484 172.5 L 483 172.5 L 483.5 166 Z " /><path fill="rgb(0,0,0)" stroke="rgb(0,0,0)" stroke-width="1" opacity="0.7568627450980392" d="M 59.5 178 L 60 187.5 L 59 187.5 L 59.5 178 Z " /><path fill="rgb(0,0,0)" stroke="rgb(0,0,0)" stroke-width="1" opacity="0.7568627450980392" d="M 452.5 178 L 453 188.5 L 452 188.5 L 452.5 178 Z " /><path fill="rgb(0,0,0)" stroke="rgb(0,0,0)" stroke-width="1" opacity="0.7568627450980392" d="M 27.5 181 L 28 195.5 L 27 195.5 L 27.5 181 Z " /><path fill="rgb(0,0,0)" stroke="rgb(0,0,0)" stroke-width="1" opacity="0.7568627450980392" d="M 484.5 182 L 485 195.5 L 484 195.5 L 484.5 182 Z " /><path fill="rgb(0,0,0)" stroke="rgb(0,0,0)" stroke-width="1" opacity="0.7568627450980392" d="M 104.5 197 L 131 197.5 L 104.5 198 L 104.5 197 Z " /><path fill="rgb(0,0,0)" stroke="rgb(0,0,0)" stroke-width="1" opacity="0.7568627450980392" d="M 98.5 199 L 97.5 201 L 98.5 199 Z " /><path fill="rgb(0,0,0)" stroke="rgb(0,0,0)" stroke-width="1" opacity="0.7568627450980392" d="M 137.5 200 L 140.5 204 L 137.5 200 Z " /><path fill="rgb(0,0,0)" stroke="rgb(0,0,0)" stroke-width="1" opacity="0.7568627450980392" d="M 94.5 203 L 93.5 205 L 94.5 203 Z " /><path fill="rgb(0,0,0)" stroke="rgb(0,0,0)" stroke-width="1" opacity="0.7568627450980392" d="M 141.5 205 L 143 207.5 L 142 207.5 L 141.5 205 Z " /><path fill="rgb(0,0,0)" stroke="rgb(0,0,0)" stroke-width="1" opacity="0.7568627450980392" d="M 58.5 210 L 59 301.5 L 58 301.5 L 58.5 210 Z " /><path fill="rgb(0,0,0)" stroke="rgb(0,0,0)" stroke-width="1" opacity="0.7568627450980392" d="M 453.5 210 L 454 301.5 L 453 301.5 L 453.5 210 Z " /><path fill="rgb(0,0,0)" stroke="rgb(0,0,0)" stroke-width="1" opacity="0.7568627450980392" d="M 143.5 215 L 144 217.5 L 143 217.5 L 143.5 215 Z " /><path fill="rgb(0,0,0)" stroke="rgb(0,0,0)" stroke-width="1" opacity="0.7568627450980392" d="M 93.5 222 L 97.5 227 L 93.5 222 Z " /><path fill="rgb(0,0,0)" stroke="rgb(0,0,0)" stroke-width="1" opacity="0.7568627450980392" d="M 136.5 226 L 135.5 228 L 136.5 226 Z " /><path fill="rgb(0,0,0)" stroke="rgb(0,0,0)" stroke-width="1" opacity="0.7568627450980392" d="M 27.5 316 L 28 330.5 L 27 330.5 L 27.5 316 Z " /><path fill="rgb(0,0,0)" stroke="rgb(0,0,0)" stroke-width="1" opacity="0.7568627450980392" d="M 484.5 316 L 485 329.5 L 484 329.5 L 484.5 316 Z " /><path fill="rgb(0,0,0)" stroke="rgb(0,0,0)" stroke-width="1" opacity="0.7568627450980392" d="M 452.5 323 L 453 333.5 L 452 333.5 L 452.5 323 Z " /><path fill="rgb(0,0,0)" stroke="rgb(0,0,0)" stroke-width="1" opacity="0.7568627450980392" d="M 59.5 324 L 60 333.5 L 59 333.5 L 59.5 324 Z " /><path fill="rgb(0,0,0)" stroke="rgb(0,0,0)" stroke-width="1" opacity="0.7568627450980392" d="M 483.5 339 L 484 345.5 L 483 345.5 L 483.5 339 Z " /><path fill="rgb(0,0,0)" stroke="rgb(0,0,0)" stroke-width="1" opacity="0.7568627450980392" d="M 28.5 340 L 29 345.5 L 28 345.5 L 28.5 340 Z " /><path fill="rgb(0,0,0)" stroke="rgb(0,0,0)" stroke-width="1" opacity="0.7568627450980392" d="M 60.5 342 L 61 347.5 L 60 347.5 L 60.5 342 Z " /><path fill="rgb(0,0,0)" stroke="rgb(0,0,0)" stroke-width="1" opacity="0.7568627450980392" d="M 451.5 342 L 452 347.5 L 451 347.5 L 451.5 342 Z " /><path fill="rgb(0,0,0)" stroke="rgb(0,0,0)" stroke-width="1" opacity="0.7568627450980392" d="M 29.5 351 L 30 355.5 L 29 355.5 L 29.5 351 Z " /><path fill="rgb(0,0,0)" stroke="rgb(0,0,0)" stroke-width="1" opacity="0.7568627450980392" d="M 482.5 351 L 483 355.5 L 482 355.5 L 482.5 351 Z " /><path fill="rgb(0,0,0)" stroke="rgb(0,0,0)" stroke-width="1" opacity="0.7568627450980392" d="M 61.5 352 L 62 355.5 L 61 355.5 L 61.5 352 Z " /><path fill="rgb(0,0,0)" stroke="rgb(0,0,0)" stroke-width="1" opacity="0.7568627450980392" d="M 450.5 352 L 451 355.5 L 450 355.5 L 450.5 352 Z " /><path fill="rgb(0,0,0)" stroke="rgb(0,0,0)" stroke-width="1" opacity="0.7568627450980392" d="M 449.5 359 L 450 362.5 L 449 362.5 L 449.5 359 Z " /><path fill="rgb(0,0,0)" stroke="rgb(0,0,0)" stroke-width="1" opacity="0.7568627450980392" d="M 30.5 360 L 31 363.5 L 30 363.5 L 30.5 360 Z " /><path fill="rgb(0,0,0)" stroke="rgb(0,0,0)" stroke-width="1" opacity="0.7568627450980392" d="M 62.5 360 L 63 362.5 L 62 362.5 L 62.5 360 Z " /><path fill="rgb(0,0,0)" stroke="rgb(0,0,0)" stroke-width="1" opacity="0.7568627450980392" d="M 481.5 360 L 482 362.5 L 481 362.5 L 481.5 360 Z " /><path fill="rgb(0,0,0)" stroke="rgb(0,0,0)" stroke-width="1" opacity="0.7568627450980392" d="M 63.5 365 L 64 367.5 L 63 367.5 L 63.5 365 Z " /><path fill="rgb(0,0,0)" stroke="rgb(0,0,0)" stroke-width="1" opacity="0.7568627450980392" d="M 448.5 365 L 449 367.5 L 448 367.5 L 448.5 365 Z " /><path fill="rgb(0,0,0)" stroke="rgb(0,0,0)" stroke-width="1" opacity="0.7568627450980392" d="M 31.5 367 L 32 369.5 L 31 369.5 L 31.5 367 Z " /><path fill="rgb(0,0,0)" stroke="rgb(0,0,0)" stroke-width="1" opacity="0.7568627450980392" d="M 32.5 372 L 33 374.5 L 32 374.5 L 32.5 372 Z " /><path fill="rgb(0,0,0)" stroke="rgb(0,0,0)" stroke-width="1" opacity="0.7568627450980392" d="M 479.5 372 L 480 374.5 L 479 374.5 L 479.5 372 Z " /><path fill="rgb(0,0,0)" stroke="rgb(0,0,0)" stroke-width="1" opacity="0.7568627450980392" d="M 71.5 390 L 72.5 392 L 71.5 390 Z " /><path fill="rgb(0,0,0)" stroke="rgb(0,0,0)" stroke-width="1" opacity="0.7568627450980392" d="M 74.5 395 L 75.5 397 L 74.5 395 Z " /><path fill="rgb(0,0,0)" stroke="rgb(0,0,0)" stroke-width="1" opacity="0.7568627450980392" d="M 437.5 395 L 436.5 397 L 437.5 395 Z " /><path fill="rgb(0,0,0)" stroke="rgb(0,0,0)" stroke-width="1" opacity="0.7568627450980392" d="M 77.5 399 L 78.5 401 L 77.5 399 Z " /><path fill="rgb(0,0,0)" stroke="rgb(0,0,0)" stroke-width="1" opacity="0.7568627450980392" d="M 434.5 399 L 433.5 401 L 434.5 399 Z " /><path fill="rgb(0,0,0)" stroke="rgb(0,0,0)" stroke-width="1" opacity="0.7568627450980392" d="M 42.5 403 L 43.5 405 L 42.5 403 Z " /><path fill="rgb(0,0,0)" stroke="rgb(0,0,0)" stroke-width="1" opacity="0.7568627450980392" d="M 80.5 403 L 84.5 408 L 80.5 403 Z " /><path fill="rgb(0,0,0)" stroke="rgb(0,0,0)" stroke-width="1" opacity="0.7568627450980392" d="M 431.5 403 L 428.5 407 L 431.5 403 Z " /><path fill="rgb(0,0,0)" stroke="rgb(0,0,0)" stroke-width="1" opacity="0.7568627450980392" d="M 469.5 403 L 468.5 405 L 469.5 403 Z " /><path fill="rgb(0,0,0)" stroke="rgb(0,0,0)" stroke-width="1" opacity="0.7568627450980392" d="M 46.5 410 L 47.5 412 L 46.5 410 Z " /><path fill="rgb(0,0,0)" stroke="rgb(0,0,0)" stroke-width="1" opacity="0.7568627450980392" d="M 465.5 410 L 464.5 412 L 465.5 410 Z " /><path fill="rgb(0,0,0)" stroke="rgb(0,0,0)" stroke-width="1" opacity="0.7568627450980392" d="M 88.5 411 L 92.5 416 L 88.5 411 Z " /><path fill="rgb(0,0,0)" stroke="rgb(0,0,0)" stroke-width="1" opacity="0.7568627450980392" d="M 423.5 411 L 419.5 416 L 423.5 411 Z " /><path fill="rgb(0,0,0)" stroke="rgb(0,0,0)" stroke-width="1" opacity="0.7568627450980392" d="M 48.5 413 L 49.5 415 L 48.5 413 Z " /><path fill="rgb(0,0,0)" stroke="rgb(0,0,0)" stroke-width="1" opacity="0.7568627450980392" d="M 463.5 413 L 462.5 415 L 463.5 413 Z " /><path fill="rgb(0,0,0)" stroke="rgb(0,0,0)" stroke-width="1" opacity="0.7568627450980392" d="M 50.5 416 L 51.5 418 L 50.5 416 Z " /><path fill="rgb(0,0,0)" stroke="rgb(0,0,0)" stroke-width="1" opacity="0.7568627450980392" d="M 94.5 416 L 96.5 419 L 94.5 416 Z " /><path fill="rgb(0,0,0)" stroke="rgb(0,0,0)" stroke-width="1" opacity="0.7568627450980392" d="M 461.5 416 L 460.5 418 L 461.5 416 Z " /><path fill="rgb(0,0,0)" stroke="rgb(0,0,0)" stroke-width="1" opacity="0.7568627450980392" d="M 53.5 420 L 54.5 422 L 53.5 420 Z " /><path fill="rgb(0,0,0)" stroke="rgb(0,0,0)" stroke-width="1" opacity="0.7568627450980392" d="M 458.5 420 L 456.5 423 L 458.5 420 Z " /><path fill="rgb(0,0,0)" stroke="rgb(0,0,0)" stroke-width="1" opacity="0.7568627450980392" d="M 57.5 425 L 70.5 439 L 57.5 425 Z " /><path fill="rgb(0,0,0)" stroke="rgb(0,0,0)" stroke-width="1" opacity="0.7568627450980392" d="M 454.5 425 L 441.5 439 L 454.5 425 Z " /><path fill="rgb(0,0,0)" stroke="rgb(0,0,0)" stroke-width="1" opacity="0.7568627450980392" d="M 123.5 428 L 126 428.5 L 123.5 429 L 123.5 428 Z " /><path fill="rgb(0,0,0)" stroke="rgb(0,0,0)" stroke-width="1" opacity="0.7568627450980392" d="M 386.5 428 L 389 428.5 L 386.5 429 L 386.5 428 Z " /><path fill="rgb(0,0,0)" stroke="rgb(0,0,0)" stroke-width="1" opacity="0.7568627450980392" d="M 129.5 429 L 133 429.5 L 129.5 430 L 129.5 429 Z " /><path fill="rgb(0,0,0)" stroke="rgb(0,0,0)" stroke-width="1" opacity="0.7568627450980392" d="M 379.5 429 L 383 429.5 L 379.5 430 L 379.5 429 Z " /><path fill="rgb(0,0,0)" stroke="rgb(0,0,0)" stroke-width="1" opacity="0.7568627450980392" d="M 138.5 430 L 144 430.5 L 138.5 431 L 138.5 430 Z " /><path fill="rgb(0,0,0)" stroke="rgb(0,0,0)" stroke-width="1" opacity="0.7568627450980392" d="M 368.5 430 L 374 430.5 L 368.5 431 L 368.5 430 Z " /><path fill="rgb(0,0,0)" stroke="rgb(0,0,0)" stroke-width="1" opacity="0.7568627450980392" d="M 152.5 431 L 165 431.5 L 152.5 432 L 152.5 431 Z " /><path fill="rgb(0,0,0)" stroke="rgb(0,0,0)" stroke-width="1" opacity="0.7568627450980392" d="M 347.5 431 L 360 431.5 L 347.5 432 L 347.5 431 Z " /><path fill="rgb(0,0,0)" stroke="rgb(0,0,0)" stroke-width="1" opacity="0.7568627450980392" d="M 73.5 440 L 74.5 442 L 73.5 440 Z " /><path fill="rgb(0,0,0)" stroke="rgb(0,0,0)" stroke-width="1" opacity="0.7568627450980392" d="M 438.5 440 L 436.5 443 L 438.5 440 Z " /><path fill="rgb(0,0,0)" stroke="rgb(0,0,0)" stroke-width="1" opacity="0.7568627450980392" d="M 77.5 443 L 78.5 445 L 77.5 443 Z " /><path fill="rgb(0,0,0)" stroke="rgb(0,0,0)" stroke-width="1" opacity="0.7568627450980392" d="M 434.5 443 L 433.5 445 L 434.5 443 Z " /><path fill="rgb(0,0,0)" stroke="rgb(0,0,0)" stroke-width="1" opacity="0.7568627450980392" d="M 80.5 445 L 81.5 447 L 80.5 445 Z " /><path fill="rgb(0,0,0)" stroke="rgb(0,0,0)" stroke-width="1" opacity="0.7568627450980392" d="M 431.5 445 L 430.5 447 L 431.5 445 Z " /><path fill="rgb(0,0,0)" stroke="rgb(0,0,0)" stroke-width="1" opacity="0.7568627450980392" d="M 393.5 459 L 396 459.5 L 393.5 460 L 393.5 459 Z " /><path fill="rgb(0,0,0)" stroke="rgb(0,0,0)" stroke-width="1" opacity="0.7568627450980392" d="M 122.5 460 L 126 460.5 L 122.5 461 L 122.5 460 Z " /><path fill="rgb(0,0,0)" stroke="rgb(0,0,0)" stroke-width="1" opacity="0.7568627450980392" d="M 386.5 460 L 390 460.5 L 386.5 461 L 386.5 460 Z " /><path fill="rgb(0,0,0)" stroke="rgb(0,0,0)" stroke-width="1" opacity="0.7568627450980392" d="M 129.5 461 L 134 461.5 L 129.5 462 L 129.5 461 Z " /><path fill="rgb(0,0,0)" stroke="rgb(0,0,0)" stroke-width="1" opacity="0.7568627450980392" d="M 378.5 461 L 383 461.5 L 378.5 462 L 378.5 461 Z " /><path fill="rgb(0,0,0)" stroke="rgb(0,0,0)" stroke-width="1" opacity="0.7568627450980392" d="M 139.5 462 L 146 462.5 L 139.5 463 L 139.5 462 Z " /><path fill="rgb(0,0,0)" stroke="rgb(0,0,0)" stroke-width="1" opacity="0.7568627450980392" d="M 366.5 462 L 373 462.5 L 366.5 463 L 366.5 462 Z " /><path fill="rgb(0,0,0)" stroke="rgb(0,0,0)" stroke-width="1" opacity="0.7568627450980392" d="M 156.5 463 L 183 463.5 L 156.5 464 L 156.5 463 Z " /><path fill="rgb(0,0,0)" stroke="rgb(0,0,0)" stroke-width="1" opacity="0.7568627450980392" d="M 329.5 463 L 356 463.5 L 329.5 464 L 329.5 463 Z " /><path fill="rgb(0,0,0)" stroke="rgb(0,0,0)" stroke-width="1" opacity="1" d="M 183.5 48 L 328.5 48 L 329.5 49 L 365.5 49 L 366.5 50 L 377.5 50 L 378.5 51 L 392.5 52 L 412.5 57 L 429.5 65 Q 445.5 75 457 89.5 Q 468.5 103 475 121.5 L 482 152.5 L 483 172.5 L 484 173.5 L 484 195.5 L 485 196.5 L 485 315.5 L 484 316.5 L 484 338.5 L 483 339.5 L 482 359.5 L 475 390.5 Q 463.2 421.2 439.5 440 Q 427.9 449.4 412.5 455 L 397.5 459 L 378.5 461 L 377.5 462 L 366.5 462 L 365.5 463 L 329.5 463 L 328.5 464 L 183.5 464 L 182.5 463 L 146.5 463 L 145.5 462 L 134.5 462 L 133.5 461 L 119.5 460 L 99.5 455 Q 71.7 444.3 55 422.5 Q 43.5 409 37 390.5 L 30 359.5 L 29 340.5 L 28 339.5 L 28 316.5 L 27 315.5 L 27 196.5 L 28 195.5 L 28 172.5 L 29 171.5 L 30 152.5 L 37 121.5 Q 48.8 90.8 72.5 72 Q 89.2 58.2 114.5 53 L 133.5 51 L 134.5 50 L 145.5 50 L 146.5 49 L 182.5 49 L 183.5 48 Z M 152 80 L 151 81 L 130 82 L 115 85 L 93 96 Q 73 111 65 137 L 60 165 L 59 210 L 58 211 L 58 302 L 59 303 L 60 348 L 61 349 L 63 368 L 67 382 Q 72 394 80 404 Q 92 420 115 427 L 130 430 L 138 430 L 139 431 L 187 432 L 187 81 L 187 80 L 152 80 Z M 218 80 L 218 432 L 360 432 L 361 431 L 374 431 L 401 426 L 420 416 Q 439 401 447 376 L 452 348 L 453 303 L 454 302 L 454 211 L 453 210 L 452 165 L 451 164 L 449 145 L 445 131 Q 440 118 432 109 L 416 93 L 398 85 L 383 82 L 362 81 L 361 80 L 218 80 Z " /><path fill="rgb(0,0,0)" stroke="rgb(0,0,0)" stroke-width="1" opacity="1" d="M 102.5 134 L 132.5 134 L 141 140.5 L 144 150.5 Q 142.8 158.3 137.5 162 L 131.5 165 L 103.5 165 Q 96.3 163.2 93 157.5 Q 90.1 153.9 91 146.5 L 96.5 137 L 102.5 134 Z " /><path fill="rgb(0,0,0)" stroke="rgb(0,0,0)" stroke-width="1" opacity="1" d="M 102.5 198 L 132.5 198 L 141 204.5 L 144 214.5 Q 142.8 222.3 137.5 226 L 131.5 229 L 103.5 229 Q 96.3 227.2 93 221.5 Q 90.1 217.9 91 210.5 L 96.5 201 L 102.5 198 Z " /></svg>