<svg width="19" height="18" viewBox="0 0 19 18" fill="none" xmlns="http://www.w3.org/2000/svg">
<g clip-path="url(#clip0_2015_4815)">
<path d="M3.77734 6H15.7773V15.75C15.7773 15.9489 15.6983 16.1397 15.5577 16.2803C15.417 16.421 15.2263 16.5 15.0273 16.5H4.52734C4.32843 16.5 4.13767 16.421 3.99701 16.2803C3.85636 16.1397 3.77734 15.9489 3.77734 15.75V6ZM6.02734 3.75V2.25C6.02734 2.05109 6.10636 1.86032 6.24701 1.71967C6.38767 1.57902 6.57843 1.5 6.77734 1.5H12.7773C12.9763 1.5 13.167 1.57902 13.3077 1.71967C13.4483 1.86032 13.5273 2.05109 13.5273 2.25V3.75H17.2773V5.25H2.27734V3.75H6.02734ZM7.52734 3V3.75H12.0273V3H7.52734ZM7.52734 9V13.5H9.02734V9H7.52734ZM10.5273 9V13.5H12.0273V9H10.5273Z" fill="#EA1532"/>
</g>
<defs>
<clipPath id="clip0_2015_4815">
<rect width="18" height="18" fill="white" transform="translate(0.777344)"/>
</clipPath>
</defs>
</svg>
