<?xml version="1.0" encoding="UTF-8"?>
<svg version="1.1" xmlns="http://www.w3.org/2000/svg" width="512" height="512">
<path d="M0 0 C3.65284342 2.7408263 6.85098411 5.69908353 10 9 C10.64324219 9.63550781 11.28648437 10.27101562 11.94921875 10.92578125 C24.11812173 23.67541279 27.46855007 40.43170262 27.20703125 57.39453125 C26.61526228 75.10040409 18.49775831 89.08807411 6 101 C-6.40114423 112.5184239 -22.92304526 117.73881608 -39.70703125 117.2890625 C-53.98119745 116.03605147 -65.70143186 111.67944152 -77 103 C-77.62777344 102.53851563 -78.25554687 102.07703125 -78.90234375 101.6015625 C-90.86507751 92.21583488 -98.47290854 76.78677389 -100.40234375 61.89453125 C-102.16988473 44.00066136 -97.95260956 26.73633845 -86.96484375 12.33203125 C-81.95946185 6.49683295 -76.56477446 1.98174501 -70 -2 C-69.24332031 -2.46148437 -68.48664063 -2.92296875 -67.70703125 -3.3984375 C-46.04588157 -15.37193732 -20.56296143 -12.97471754 0 0 Z " fill="#000000" transform="translate(296,203)"/>
<path d="M0 0 C3.65307769 2.74100208 6.84814306 5.70168131 10 9 C10.63164063 9.61230469 11.26328125 10.22460938 11.9140625 10.85546875 C23.51552272 22.84023713 27.5257441 39.11994731 27.34960938 55.33789062 C26.76725148 73.89464614 19.19721622 88.42140329 6 101 C-6.59836834 112.70160949 -23.34033252 117.78648806 -40.359375 117.34765625 C-57.50255006 115.7105934 -73.95350418 108.78044659 -85.31835938 95.45410156 C-98.40348872 78.80859981 -101.19661837 62.61928121 -100 42 C-99.49410355 38.01721524 -98.5777347 34.68325254 -97 31 C-96.52433594 29.88625 -96.04867187 28.7725 -95.55859375 27.625 C-88.14895392 11.67106552 -76.63886864 -0.58638945 -60 -7 C-39.01143265 -13.77408788 -18.80926003 -11.86817555 0 0 Z " fill="#000000" transform="translate(100,203)"/>
<path d="M0 0 C12.98721339 10.10480537 22.31667544 24.43671274 24.91015625 40.84765625 C25.76497287 51.70311588 26.25850073 63.69636094 21.91015625 73.84765625 C21.43449219 74.96140625 20.95882812 76.07515625 20.46875 77.22265625 C12.93173835 93.45083911 1.5383007 104.94986131 -15.08984375 111.84765625 C-31.61427596 117.77759514 -49.20059694 117.56691968 -65.26269531 110.23242188 C-72.94491816 106.4978575 -79.15565686 102.05759532 -85.08984375 95.84765625 C-85.72148437 95.23535156 -86.353125 94.62304688 -87.00390625 93.9921875 C-98.60536647 82.00741912 -102.61558785 65.72770894 -102.43945312 49.50976562 C-101.85709523 30.95301011 -94.28705997 16.42625296 -81.08984375 3.84765625 C-58.6602254 -16.98540941 -24.43800839 -17.02318916 0 0 Z " fill="#000000" transform="translate(487.08984375,204.15234375)"/>
</svg>
